<svg width="52" height="52" viewBox="0 0 52 52" fill="none" xmlns="http://www.w3.org/2000/svg">
<path fill-rule="evenodd" clip-rule="evenodd" d="M26 0C17.1652 0.00903733 8.9396 4.50376 4.16 11.934C-2.67192 22.6485 -0.758205 36.7315 8.68511 45.2343C18.1284 53.7372 32.3343 54.1684 42.276 46.254C50.8627 39.3425 54.1581 27.7676 50.4993 17.3697C46.8405 6.97193 37.0228 0.0112793 26 0ZM31.2 5.876C38.5166 7.7699 44.2301 13.4834 46.124 20.8C41.7768 20.9224 37.5336 22.1578 33.8 24.388C31.9252 22.2612 29.8339 20.3354 27.56 18.642C29.851 14.7705 31.1047 10.3736 31.2 5.876ZM23.036 15.782C24.9668 12.5893 25.9914 8.93107 26 5.2C20.4654 5.20253 15.1599 7.41078 11.258 11.336C14.9644 12.1049 18.5441 13.3915 21.892 15.158C22.134 15.2709 22.3661 15.4039 22.6005 15.5383C22.7438 15.6204 22.888 15.7031 23.036 15.782ZM7.8 16.016C11.8779 16.5825 15.8273 17.8491 19.474 19.76L19.812 19.968C15.9362 23.8402 10.6786 26.0106 5.2 26C5.21446 22.5065 6.10863 19.0728 7.8 16.016ZM5.876 31.2C7.76991 38.5166 13.4834 44.2301 20.8 46.124C21.0238 38.9989 24.1633 32.2782 29.484 27.534C27.9049 25.8107 26.1636 24.2434 24.284 22.854C19.5426 28.0295 12.8933 31.0442 5.876 31.2ZM26 46.8C26.0113 41.0259 28.4224 35.5164 32.656 31.59C32.7035 31.6534 32.7511 31.7143 32.7979 31.7743C32.9046 31.9113 33.0076 32.0434 33.098 32.188C35.2768 35.5244 36.893 39.1959 37.882 43.056C34.4021 45.4993 30.252 46.807 26 46.8ZM37.466 29.25C39.4436 32.2825 41.0169 35.5602 42.146 39C45.1324 35.323 46.7742 30.7369 46.8 26C43.3407 26.0241 39.9431 26.9182 36.92 28.6L37.466 29.25Z" fill="#984848"/>
</svg>
