<svg width="86" height="96" viewBox="0 0 86 96" fill="none" xmlns="http://www.w3.org/2000/svg">
<path fill-rule="evenodd" clip-rule="evenodd" d="M86 33.312C85.9502 32.871 85.8541 32.4366 85.7133 32.016V31.584C85.4836 31.0905 85.1772 30.6368 84.8056 30.24V30.24L56.1389 1.44V1.44C55.7439 1.06664 55.2924 0.758789 54.8011 0.528C54.6585 0.507649 54.5137 0.507649 54.3711 0.528C53.8858 0.248358 53.3497 0.0688522 52.7944 0H33.4444C25.5284 0 19.1111 6.4471 19.1111 14.4V19.2H14.3333C6.41725 19.2 0 25.6471 0 33.6V81.6C0 89.5529 6.41725 96 14.3333 96H52.5556C60.4716 96 66.8889 89.5529 66.8889 81.6V76.8H71.6667C79.5827 76.8 86 70.3529 86 62.4V33.6C86 33.6 86 33.6 86 33.312ZM57.3333 16.368L69.7078 28.8H62.1111C59.4724 28.8 57.3333 26.651 57.3333 24V16.368ZM57.3333 81.6C57.3333 84.251 55.1942 86.4 52.5556 86.4H14.3333C11.6946 86.4 9.55556 84.251 9.55556 81.6V33.6C9.55556 30.949 11.6946 28.8 14.3333 28.8H19.1111V62.4C19.1111 70.3529 25.5284 76.8 33.4444 76.8H57.3333V81.6ZM76.4444 62.4C76.4444 65.051 74.3054 67.2 71.6667 67.2H33.4444C30.8057 67.2 28.6667 65.051 28.6667 62.4V14.4C28.6667 11.749 30.8057 9.6 33.4444 9.6H47.7778V24C47.7778 31.9529 54.195 38.4 62.1111 38.4H76.4444V62.4Z" fill="#CDADC6"/>
</svg>
