<svg width="284" height="452" viewBox="0 0 284 452" fill="none" xmlns="http://www.w3.org/2000/svg">
<circle cx="2" cy="2" r="2" fill="#8E8E93"/>
<circle cx="30" cy="2" r="2" fill="#8E8E93"/>
<circle cx="58" cy="2" r="2" fill="#8E8E93"/>
<circle cx="86" cy="2" r="2" fill="#8E8E93"/>
<circle cx="114" cy="2" r="2" fill="#8E8E93"/>
<circle cx="142" cy="2" r="2" fill="#8E8E93"/>
<circle cx="170" cy="2" r="2" fill="#8E8E93"/>
<circle cx="198" cy="2" r="2" fill="#8E8E93"/>
<circle cx="226" cy="2" r="2" fill="#8E8E93"/>
<circle cx="2" cy="30" r="2" fill="#8E8E93"/>
<circle cx="2" cy="58" r="2" fill="#8E8E93"/>
<circle cx="30" cy="30" r="2" fill="#8E8E93"/>
<circle cx="30" cy="58" r="2" fill="#8E8E93"/>
<circle cx="58" cy="30" r="2" fill="#8E8E93"/>
<circle cx="58" cy="58" r="2" fill="#8E8E93"/>
<circle cx="86" cy="30" r="2" fill="#8E8E93"/>
<circle cx="86" cy="58" r="2" fill="#8E8E93"/>
<circle cx="114" cy="30" r="2" fill="#8E8E93"/>
<circle cx="114" cy="58" r="2" fill="#8E8E93"/>
<circle cx="142" cy="30" r="2" fill="#8E8E93"/>
<circle cx="142" cy="58" r="2" fill="#8E8E93"/>
<circle cx="170" cy="30" r="2" fill="#8E8E93"/>
<circle cx="170" cy="58" r="2" fill="#8E8E93"/>
<circle cx="198" cy="30" r="2" fill="#8E8E93"/>
<circle cx="198" cy="58" r="2" fill="#8E8E93"/>
<circle cx="226" cy="30" r="2" fill="#8E8E93"/>
<circle cx="226" cy="58" r="2" fill="#8E8E93"/>
<circle cx="2" cy="86" r="2" fill="#8E8E93"/>
<circle cx="30" cy="86" r="2" fill="#8E8E93"/>
<circle cx="58" cy="86" r="2" fill="#8E8E93"/>
<circle cx="86" cy="86" r="2" fill="#8E8E93"/>
<circle cx="114" cy="86" r="2" fill="#8E8E93"/>
<circle cx="142" cy="86" r="2" fill="#8E8E93"/>
<circle cx="170" cy="86" r="2" fill="#8E8E93"/>
<circle cx="198" cy="86" r="2" fill="#8E8E93"/>
<circle cx="226" cy="86" r="2" fill="#8E8E93"/>
<circle cx="2" cy="114" r="2" fill="#8E8E93"/>
<circle cx="30" cy="114" r="2" fill="#8E8E93"/>
<circle cx="58" cy="114" r="2" fill="#8E8E93"/>
<circle cx="86" cy="114" r="2" fill="#8E8E93"/>
<circle cx="114" cy="114" r="2" fill="#8E8E93"/>
<circle cx="142" cy="114" r="2" fill="#8E8E93"/>
<circle cx="170" cy="114" r="2" fill="#8E8E93"/>
<circle cx="198" cy="114" r="2" fill="#8E8E93"/>
<circle cx="226" cy="114" r="2" fill="#8E8E93"/>
<circle cx="2" cy="142" r="2" fill="#8E8E93"/>
<circle cx="30" cy="142" r="2" fill="#8E8E93"/>
<circle cx="58" cy="142" r="2" fill="#8E8E93"/>
<circle cx="86" cy="142" r="2" fill="#8E8E93"/>
<circle cx="114" cy="142" r="2" fill="#8E8E93"/>
<circle cx="142" cy="142" r="2" fill="#8E8E93"/>
<circle cx="170" cy="142" r="2" fill="#8E8E93"/>
<circle cx="198" cy="142" r="2" fill="#8E8E93"/>
<circle cx="226" cy="142" r="2" fill="#8E8E93"/>
<circle cx="2" cy="170" r="2" fill="#8E8E93"/>
<circle cx="30" cy="170" r="2" fill="#8E8E93"/>
<circle cx="58" cy="170" r="2" fill="#8E8E93"/>
<circle cx="86" cy="170" r="2" fill="#8E8E93"/>
<circle cx="114" cy="170" r="2" fill="#8E8E93"/>
<circle cx="142" cy="170" r="2" fill="#8E8E93"/>
<circle cx="170" cy="170" r="2" fill="#8E8E93"/>
<circle cx="198" cy="170" r="2" fill="#8E8E93"/>
<circle cx="226" cy="170" r="2" fill="#8E8E93"/>
<circle cx="2" cy="198" r="2" fill="#8E8E93"/>
<circle cx="30" cy="198" r="2" fill="#8E8E93"/>
<circle cx="58" cy="198" r="2" fill="#8E8E93"/>
<circle cx="86" cy="198" r="2" fill="#8E8E93"/>
<circle cx="114" cy="198" r="2" fill="#8E8E93"/>
<circle cx="142" cy="198" r="2" fill="#8E8E93"/>
<circle cx="170" cy="198" r="2" fill="#8E8E93"/>
<circle cx="198" cy="198" r="2" fill="#8E8E93"/>
<circle cx="226" cy="198" r="2" fill="#8E8E93"/>
<circle cx="2" cy="226" r="2" fill="#8E8E93"/>
<circle cx="30" cy="226" r="2" fill="#8E8E93"/>
<circle cx="58" cy="226" r="2" fill="#8E8E93"/>
<circle cx="86" cy="226" r="2" fill="#8E8E93"/>
<circle cx="114" cy="226" r="2" fill="#8E8E93"/>
<circle cx="142" cy="226" r="2" fill="#8E8E93"/>
<circle cx="170" cy="226" r="2" fill="#8E8E93"/>
<circle cx="198" cy="226" r="2" fill="#8E8E93"/>
<circle cx="226" cy="226" r="2" fill="#8E8E93"/>
<circle cx="254" cy="2" r="2" fill="#8E8E93"/>
<circle cx="282" cy="2" r="2" fill="#8E8E93"/>
<circle cx="254" cy="30" r="2" fill="#8E8E93"/>
<circle cx="254" cy="58" r="2" fill="#8E8E93"/>
<circle cx="282" cy="30" r="2" fill="#8E8E93"/>
<circle cx="282" cy="58" r="2" fill="#8E8E93"/>
<circle cx="254" cy="86" r="2" fill="#8E8E93"/>
<circle cx="282" cy="86" r="2" fill="#8E8E93"/>
<circle cx="254" cy="114" r="2" fill="#8E8E93"/>
<circle cx="282" cy="114" r="2" fill="#8E8E93"/>
<circle cx="254" cy="142" r="2" fill="#8E8E93"/>
<circle cx="282" cy="142" r="2" fill="#8E8E93"/>
<circle cx="254" cy="170" r="2" fill="#8E8E93"/>
<circle cx="282" cy="170" r="2" fill="#8E8E93"/>
<circle cx="254" cy="198" r="2" fill="#8E8E93"/>
<circle cx="282" cy="198" r="2" fill="#8E8E93"/>
<circle cx="254" cy="226" r="2" fill="#8E8E93"/>
<circle cx="282" cy="226" r="2" fill="#8E8E93"/>
<circle cx="2" cy="254" r="2" fill="#8E8E93"/>
<circle cx="30" cy="254" r="2" fill="#8E8E93"/>
<circle cx="58" cy="254" r="2" fill="#8E8E93"/>
<circle cx="86" cy="254" r="2" fill="#8E8E93"/>
<circle cx="114" cy="254" r="2" fill="#8E8E93"/>
<circle cx="142" cy="254" r="2" fill="#8E8E93"/>
<circle cx="170" cy="254" r="2" fill="#8E8E93"/>
<circle cx="198" cy="254" r="2" fill="#8E8E93"/>
<circle cx="226" cy="254" r="2" fill="#8E8E93"/>
<circle cx="254" cy="254" r="2" fill="#8E8E93"/>
<circle cx="282" cy="254" r="2" fill="#8E8E93"/>
<circle cx="2" cy="282" r="2" fill="#8E8E93"/>
<circle cx="30" cy="282" r="2" fill="#8E8E93"/>
<circle cx="58" cy="282" r="2" fill="#8E8E93"/>
<circle cx="86" cy="282" r="2" fill="#8E8E93"/>
<circle cx="114" cy="282" r="2" fill="#8E8E93"/>
<circle cx="142" cy="282" r="2" fill="#8E8E93"/>
<circle cx="170" cy="282" r="2" fill="#8E8E93"/>
<circle cx="198" cy="282" r="2" fill="#8E8E93"/>
<circle cx="226" cy="282" r="2" fill="#8E8E93"/>
<circle cx="254" cy="282" r="2" fill="#8E8E93"/>
<circle cx="282" cy="282" r="2" fill="#8E8E93"/>
<circle cx="2" cy="310" r="2" fill="#8E8E93"/>
<circle cx="30" cy="310" r="2" fill="#8E8E93"/>
<circle cx="58" cy="310" r="2" fill="#8E8E93"/>
<circle cx="86" cy="310" r="2" fill="#8E8E93"/>
<circle cx="114" cy="310" r="2" fill="#8E8E93"/>
<circle cx="142" cy="310" r="2" fill="#8E8E93"/>
<circle cx="170" cy="310" r="2" fill="#8E8E93"/>
<circle cx="198" cy="310" r="2" fill="#8E8E93"/>
<circle cx="226" cy="310" r="2" fill="#8E8E93"/>
<circle cx="254" cy="310" r="2" fill="#8E8E93"/>
<circle cx="282" cy="310" r="2" fill="#8E8E93"/>
<circle cx="2" cy="338" r="2" fill="#8E8E93"/>
<circle cx="30" cy="338" r="2" fill="#8E8E93"/>
<circle cx="58" cy="338" r="2" fill="#8E8E93"/>
<circle cx="86" cy="338" r="2" fill="#8E8E93"/>
<circle cx="114" cy="338" r="2" fill="#8E8E93"/>
<circle cx="142" cy="338" r="2" fill="#8E8E93"/>
<circle cx="170" cy="338" r="2" fill="#8E8E93"/>
<circle cx="198" cy="338" r="2" fill="#8E8E93"/>
<circle cx="226" cy="338" r="2" fill="#8E8E93"/>
<circle cx="254" cy="338" r="2" fill="#8E8E93"/>
<circle cx="282" cy="338" r="2" fill="#8E8E93"/>
<circle cx="2" cy="366" r="2" fill="#8E8E93"/>
<circle cx="30" cy="366" r="2" fill="#8E8E93"/>
<circle cx="58" cy="366" r="2" fill="#8E8E93"/>
<circle cx="86" cy="366" r="2" fill="#8E8E93"/>
<circle cx="114" cy="366" r="2" fill="#8E8E93"/>
<circle cx="142" cy="366" r="2" fill="#8E8E93"/>
<circle cx="170" cy="366" r="2" fill="#8E8E93"/>
<circle cx="198" cy="366" r="2" fill="#8E8E93"/>
<circle cx="226" cy="366" r="2" fill="#8E8E93"/>
<circle cx="254" cy="366" r="2" fill="#8E8E93"/>
<circle cx="282" cy="366" r="2" fill="#8E8E93"/>
<circle cx="2" cy="394" r="2" fill="#8E8E93"/>
<circle cx="30" cy="394" r="2" fill="#8E8E93"/>
<circle cx="58" cy="394" r="2" fill="#8E8E93"/>
<circle cx="86" cy="394" r="2" fill="#8E8E93"/>
<circle cx="114" cy="394" r="2" fill="#8E8E93"/>
<circle cx="142" cy="394" r="2" fill="#8E8E93"/>
<circle cx="170" cy="394" r="2" fill="#8E8E93"/>
<circle cx="198" cy="394" r="2" fill="#8E8E93"/>
<circle cx="226" cy="394" r="2" fill="#8E8E93"/>
<circle cx="254" cy="394" r="2" fill="#8E8E93"/>
<circle cx="282" cy="394" r="2" fill="#8E8E93"/>
<circle cx="2" cy="422" r="2" fill="#8E8E93"/>
<circle cx="30" cy="422" r="2" fill="#8E8E93"/>
<circle cx="58" cy="422" r="2" fill="#8E8E93"/>
<circle cx="86" cy="422" r="2" fill="#8E8E93"/>
<circle cx="114" cy="422" r="2" fill="#8E8E93"/>
<circle cx="142" cy="422" r="2" fill="#8E8E93"/>
<circle cx="170" cy="422" r="2" fill="#8E8E93"/>
<circle cx="198" cy="422" r="2" fill="#8E8E93"/>
<circle cx="226" cy="422" r="2" fill="#8E8E93"/>
<circle cx="254" cy="422" r="2" fill="#8E8E93"/>
<circle cx="282" cy="422" r="2" fill="#8E8E93"/>
<circle cx="2" cy="450" r="2" fill="#8E8E93"/>
<circle cx="30" cy="450" r="2" fill="#8E8E93"/>
<circle cx="58" cy="450" r="2" fill="#8E8E93"/>
<circle cx="86" cy="450" r="2" fill="#8E8E93"/>
<circle cx="114" cy="450" r="2" fill="#8E8E93"/>
<circle cx="142" cy="450" r="2" fill="#8E8E93"/>
<circle cx="170" cy="450" r="2" fill="#8E8E93"/>
<circle cx="198" cy="450" r="2" fill="#8E8E93"/>
<circle cx="226" cy="450" r="2" fill="#8E8E93"/>
<circle cx="254" cy="450" r="2" fill="#8E8E93"/>
<circle cx="282" cy="450" r="2" fill="#8E8E93"/>
<circle cx="2" cy="450" r="2" fill="#8E8E93"/>
<circle cx="30" cy="450" r="2" fill="#8E8E93"/>
<circle cx="58" cy="450" r="2" fill="#8E8E93"/>
<circle cx="86" cy="450" r="2" fill="#8E8E93"/>
<circle cx="114" cy="450" r="2" fill="#8E8E93"/>
<circle cx="142" cy="450" r="2" fill="#8E8E93"/>
<circle cx="170" cy="450" r="2" fill="#8E8E93"/>
<circle cx="198" cy="450" r="2" fill="#8E8E93"/>
<circle cx="226" cy="450" r="2" fill="#8E8E93"/>
<circle cx="254" cy="450" r="2" fill="#8E8E93"/>
<circle cx="282" cy="450" r="2" fill="#8E8E93"/>
</svg>
