<svg width="1168" height="560" viewBox="0 0 1168 560" fill="none" xmlns="http://www.w3.org/2000/svg">
<path fill-rule="evenodd" clip-rule="evenodd" d="M1160.2 202.985C1164.53 148.237 1124.07 100.168 1069.39 95.0793L148.409 9.37948C92.8706 4.21147 43.761 45.291 39.0358 100.869L9.26196 451.063C4.27881 509.673 50.5081 560 109.33 560H1039.19C1091.59 560 1135.18 519.715 1139.31 467.479L1160.2 202.985Z" fill="url(#paint0_linear)"/>
<mask id="mask0" mask-type="alpha" maskUnits="userSpaceOnUse" x="8" y="8" width="1153" height="552">
<path fill-rule="evenodd" clip-rule="evenodd" d="M1160.2 202.985C1164.53 148.237 1124.07 100.168 1069.39 95.0793L148.409 9.37948C92.8706 4.21147 43.761 45.291 39.0358 100.869L9.26196 451.063C4.27881 509.673 50.5081 560 109.33 560H1039.19C1091.59 560 1135.18 519.715 1139.31 467.479L1160.2 202.985Z" fill="white"/>
</mask>
<g mask="url(#mask0)">
<circle cx="764" cy="462" r="180" fill="url(#paint1_linear)"/>
<circle cx="1126.5" cy="143.5" r="107.5" fill="url(#paint2_linear)"/>
</g>
<defs>
<linearGradient id="paint0_linear" x1="1077.13" y1="0" x2="1077.13" y2="472.864" gradientUnits="userSpaceOnUse">
<stop stop-color="#F8F8FF"/>
<stop offset="1" stop-color="#DBDDFC"/>
</linearGradient>
<linearGradient id="paint1_linear" x1="612.008" y1="282" x2="612.008" y2="585.984" gradientUnits="userSpaceOnUse">
<stop stop-color="#F0D5DC"/>
<stop offset="1" stop-color="#DBDDFC"/>
</linearGradient>
<linearGradient id="paint2_linear" x1="1035.73" y1="36" x2="1035.73" y2="217.546" gradientUnits="userSpaceOnUse">
<stop stop-color="#F0D5DC"/>
<stop offset="1" stop-color="#DBDDFC"/>
</linearGradient>
</defs>
</svg>
