<svg width="160" height="81" viewBox="0 0 160 81" fill="none" xmlns="http://www.w3.org/2000/svg">
<path fill-rule="evenodd" clip-rule="evenodd" d="M2.80702 1.39655C2.80702 2.16785 2.17865 2.7931 1.40351 2.7931C0.628372 2.7931 0 2.16785 0 1.39655C0 0.625257 0.628372 0 1.40351 0C2.17865 0 2.80702 0.625257 2.80702 1.39655ZM22.4561 1.39655C22.4561 2.16785 21.8278 2.7931 21.0526 2.7931C20.2775 2.7931 19.6491 2.16785 19.6491 1.39655C19.6491 0.625257 20.2775 0 21.0526 0C21.8278 0 22.4561 0.625257 22.4561 1.39655ZM40.7018 2.7931C41.4769 2.7931 42.1053 2.16785 42.1053 1.39655C42.1053 0.625257 41.4769 0 40.7018 0C39.9266 0 39.2982 0.625257 39.2982 1.39655C39.2982 2.16785 39.9266 2.7931 40.7018 2.7931ZM61.7544 1.39655C61.7544 2.16785 61.126 2.7931 60.3509 2.7931C59.5757 2.7931 58.9474 2.16785 58.9474 1.39655C58.9474 0.625257 59.5757 0 60.3509 0C61.126 0 61.7544 0.625257 61.7544 1.39655ZM80 2.7931C80.7751 2.7931 81.4035 2.16785 81.4035 1.39655C81.4035 0.625257 80.7751 0 80 0C79.2249 0 78.5965 0.625257 78.5965 1.39655C78.5965 2.16785 79.2249 2.7931 80 2.7931ZM101.053 1.39655C101.053 2.16785 100.424 2.7931 99.6491 2.7931C98.874 2.7931 98.2456 2.16785 98.2456 1.39655C98.2456 0.625257 98.874 0 99.6491 0C100.424 0 101.053 0.625257 101.053 1.39655ZM119.298 2.7931C120.073 2.7931 120.702 2.16785 120.702 1.39655C120.702 0.625257 120.073 0 119.298 0C118.523 0 117.895 0.625257 117.895 1.39655C117.895 2.16785 118.523 2.7931 119.298 2.7931ZM140.351 1.39655C140.351 2.16785 139.723 2.7931 138.947 2.7931C138.172 2.7931 137.544 2.16785 137.544 1.39655C137.544 0.625257 138.172 0 138.947 0C139.723 0 140.351 0.625257 140.351 1.39655ZM158.596 2.7931C159.372 2.7931 160 2.16785 160 1.39655C160 0.625257 159.372 0 158.596 0C157.821 0 157.193 0.625257 157.193 1.39655C157.193 2.16785 157.821 2.7931 158.596 2.7931ZM2.80702 20.9483C2.80702 21.7196 2.17865 22.3448 1.40351 22.3448C0.628372 22.3448 0 21.7196 0 20.9483C0 20.177 0.628372 19.5517 1.40351 19.5517C2.17865 19.5517 2.80702 20.177 2.80702 20.9483ZM1.40351 41.8965C2.17865 41.8965 2.80702 41.2713 2.80702 40.5C2.80702 39.7287 2.17865 39.1034 1.40351 39.1034C0.628372 39.1034 0 39.7287 0 40.5C0 41.2713 0.628372 41.8965 1.40351 41.8965ZM22.4561 20.9483C22.4561 21.7196 21.8278 22.3448 21.0526 22.3448C20.2775 22.3448 19.6491 21.7196 19.6491 20.9483C19.6491 20.177 20.2775 19.5517 21.0526 19.5517C21.8278 19.5517 22.4561 20.177 22.4561 20.9483ZM21.0526 41.8965C21.8278 41.8965 22.4561 41.2713 22.4561 40.5C22.4561 39.7287 21.8278 39.1034 21.0526 39.1034C20.2775 39.1034 19.6491 39.7287 19.6491 40.5C19.6491 41.2713 20.2775 41.8965 21.0526 41.8965ZM42.1053 20.9483C42.1053 21.7196 41.4769 22.3448 40.7018 22.3448C39.9266 22.3448 39.2982 21.7196 39.2982 20.9483C39.2982 20.177 39.9266 19.5517 40.7018 19.5517C41.4769 19.5517 42.1053 20.177 42.1053 20.9483ZM40.7018 41.8965C41.4769 41.8965 42.1053 41.2713 42.1053 40.5C42.1053 39.7287 41.4769 39.1034 40.7018 39.1034C39.9266 39.1034 39.2982 39.7287 39.2982 40.5C39.2982 41.2713 39.9266 41.8965 40.7018 41.8965ZM61.7544 20.9483C61.7544 21.7196 61.126 22.3448 60.3509 22.3448C59.5757 22.3448 58.9474 21.7196 58.9474 20.9483C58.9474 20.177 59.5757 19.5517 60.3509 19.5517C61.126 19.5517 61.7544 20.177 61.7544 20.9483ZM60.3509 41.8965C61.126 41.8965 61.7544 41.2713 61.7544 40.5C61.7544 39.7287 61.126 39.1034 60.3509 39.1034C59.5757 39.1034 58.9474 39.7287 58.9474 40.5C58.9474 41.2713 59.5757 41.8965 60.3509 41.8965ZM81.4035 20.9483C81.4035 21.7196 80.7751 22.3448 80 22.3448C79.2249 22.3448 78.5965 21.7196 78.5965 20.9483C78.5965 20.177 79.2249 19.5517 80 19.5517C80.7751 19.5517 81.4035 20.177 81.4035 20.9483ZM80 41.8965C80.7751 41.8965 81.4035 41.2713 81.4035 40.5C81.4035 39.7287 80.7751 39.1034 80 39.1034C79.2249 39.1034 78.5965 39.7287 78.5965 40.5C78.5965 41.2713 79.2249 41.8965 80 41.8965ZM101.053 20.9483C101.053 21.7196 100.424 22.3448 99.6491 22.3448C98.874 22.3448 98.2456 21.7196 98.2456 20.9483C98.2456 20.177 98.874 19.5517 99.6491 19.5517C100.424 19.5517 101.053 20.177 101.053 20.9483ZM99.6491 41.8965C100.424 41.8965 101.053 41.2713 101.053 40.5C101.053 39.7287 100.424 39.1034 99.6491 39.1034C98.874 39.1034 98.2456 39.7287 98.2456 40.5C98.2456 41.2713 98.874 41.8965 99.6491 41.8965ZM120.702 20.9483C120.702 21.7196 120.073 22.3448 119.298 22.3448C118.523 22.3448 117.895 21.7196 117.895 20.9483C117.895 20.177 118.523 19.5517 119.298 19.5517C120.073 19.5517 120.702 20.177 120.702 20.9483ZM119.298 41.8965C120.073 41.8965 120.702 41.2713 120.702 40.5C120.702 39.7287 120.073 39.1034 119.298 39.1034C118.523 39.1034 117.895 39.7287 117.895 40.5C117.895 41.2713 118.523 41.8965 119.298 41.8965ZM140.351 20.9483C140.351 21.7196 139.723 22.3448 138.947 22.3448C138.172 22.3448 137.544 21.7196 137.544 20.9483C137.544 20.177 138.172 19.5517 138.947 19.5517C139.723 19.5517 140.351 20.177 140.351 20.9483ZM138.947 41.8965C139.723 41.8965 140.351 41.2713 140.351 40.5C140.351 39.7287 139.723 39.1034 138.947 39.1034C138.172 39.1034 137.544 39.7287 137.544 40.5C137.544 41.2713 138.172 41.8965 138.947 41.8965ZM160 20.9483C160 21.7196 159.372 22.3448 158.596 22.3448C157.821 22.3448 157.193 21.7196 157.193 20.9483C157.193 20.177 157.821 19.5517 158.596 19.5517C159.372 19.5517 160 20.177 160 20.9483ZM158.596 41.8965C159.372 41.8965 160 41.2713 160 40.5C160 39.7287 159.372 39.1034 158.596 39.1034C157.821 39.1034 157.193 39.7287 157.193 40.5C157.193 41.2713 157.821 41.8965 158.596 41.8965ZM2.80702 60.0517C2.80702 60.823 2.17865 61.4483 1.40351 61.4483C0.628372 61.4483 0 60.823 0 60.0517C0 59.2804 0.628372 58.6552 1.40351 58.6552C2.17865 58.6552 2.80702 59.2804 2.80702 60.0517ZM21.0526 61.4483C21.8278 61.4483 22.4561 60.823 22.4561 60.0517C22.4561 59.2804 21.8278 58.6552 21.0526 58.6552C20.2775 58.6552 19.6491 59.2804 19.6491 60.0517C19.6491 60.823 20.2775 61.4483 21.0526 61.4483ZM42.1053 60.0517C42.1053 60.823 41.4769 61.4483 40.7018 61.4483C39.9266 61.4483 39.2982 60.823 39.2982 60.0517C39.2982 59.2804 39.9266 58.6552 40.7018 58.6552C41.4769 58.6552 42.1053 59.2804 42.1053 60.0517ZM60.3509 61.4483C61.126 61.4483 61.7544 60.823 61.7544 60.0517C61.7544 59.2804 61.126 58.6552 60.3509 58.6552C59.5757 58.6552 58.9474 59.2804 58.9474 60.0517C58.9474 60.823 59.5757 61.4483 60.3509 61.4483ZM81.4035 60.0517C81.4035 60.823 80.7751 61.4483 80 61.4483C79.2249 61.4483 78.5965 60.823 78.5965 60.0517C78.5965 59.2804 79.2249 58.6552 80 58.6552C80.7751 58.6552 81.4035 59.2804 81.4035 60.0517ZM99.6491 61.4483C100.424 61.4483 101.053 60.823 101.053 60.0517C101.053 59.2804 100.424 58.6552 99.6491 58.6552C98.874 58.6552 98.2456 59.2804 98.2456 60.0517C98.2456 60.823 98.874 61.4483 99.6491 61.4483ZM120.702 60.0517C120.702 60.823 120.073 61.4483 119.298 61.4483C118.523 61.4483 117.895 60.823 117.895 60.0517C117.895 59.2804 118.523 58.6552 119.298 58.6552C120.073 58.6552 120.702 59.2804 120.702 60.0517ZM138.947 61.4483C139.723 61.4483 140.351 60.823 140.351 60.0517C140.351 59.2804 139.723 58.6552 138.947 58.6552C138.172 58.6552 137.544 59.2804 137.544 60.0517C137.544 60.823 138.172 61.4483 138.947 61.4483ZM160 60.0517C160 60.823 159.372 61.4483 158.596 61.4483C157.821 61.4483 157.193 60.823 157.193 60.0517C157.193 59.2804 157.821 58.6552 158.596 58.6552C159.372 58.6552 160 59.2804 160 60.0517ZM1.40351 81C2.17865 81 2.80702 80.3747 2.80702 79.6034C2.80702 78.8322 2.17865 78.2069 1.40351 78.2069C0.628372 78.2069 0 78.8322 0 79.6034C0 80.3747 0.628372 81 1.40351 81ZM22.4561 79.6034C22.4561 80.3747 21.8278 81 21.0526 81C20.2775 81 19.6491 80.3747 19.6491 79.6034C19.6491 78.8322 20.2775 78.2069 21.0526 78.2069C21.8278 78.2069 22.4561 78.8322 22.4561 79.6034ZM40.7018 81C41.4769 81 42.1053 80.3747 42.1053 79.6034C42.1053 78.8322 41.4769 78.2069 40.7018 78.2069C39.9266 78.2069 39.2982 78.8322 39.2982 79.6034C39.2982 80.3747 39.9266 81 40.7018 81ZM61.7544 79.6034C61.7544 80.3747 61.126 81 60.3509 81C59.5757 81 58.9474 80.3747 58.9474 79.6034C58.9474 78.8322 59.5757 78.2069 60.3509 78.2069C61.126 78.2069 61.7544 78.8322 61.7544 79.6034ZM80 81C80.7751 81 81.4035 80.3747 81.4035 79.6034C81.4035 78.8322 80.7751 78.2069 80 78.2069C79.2249 78.2069 78.5965 78.8322 78.5965 79.6034C78.5965 80.3747 79.2249 81 80 81ZM101.053 79.6034C101.053 80.3747 100.424 81 99.6491 81C98.874 81 98.2456 80.3747 98.2456 79.6034C98.2456 78.8322 98.874 78.2069 99.6491 78.2069C100.424 78.2069 101.053 78.8322 101.053 79.6034ZM119.298 81C120.073 81 120.702 80.3747 120.702 79.6034C120.702 78.8322 120.073 78.2069 119.298 78.2069C118.523 78.2069 117.895 78.8322 117.895 79.6034C117.895 80.3747 118.523 81 119.298 81ZM140.351 79.6034C140.351 80.3747 139.723 81 138.947 81C138.172 81 137.544 80.3747 137.544 79.6034C137.544 78.8322 138.172 78.2069 138.947 78.2069C139.723 78.2069 140.351 78.8322 140.351 79.6034ZM158.596 81C159.372 81 160 80.3747 160 79.6034C160 78.8322 159.372 78.2069 158.596 78.2069C157.821 78.2069 157.193 78.8322 157.193 79.6034C157.193 80.3747 157.821 81 158.596 81Z" fill="#E9B1BC"/>
</svg>
