<svg width="370" height="256" viewBox="0 0 370 256" fill="none" xmlns="http://www.w3.org/2000/svg">
<path fill-rule="evenodd" clip-rule="evenodd" d="M0 54.5303C0 26.4847 25.8865 5.59708 53.2986 11.524L330.089 71.3706C352.597 76.2372 367.545 97.6353 364.37 120.443L350.932 216.977C347.84 239.19 328.535 255.523 306.116 254.893L42.7633 247.488C18.9538 246.819 0 227.324 0 203.505V54.5303Z" fill="#F8F4F1"/>
<mask id="mask0" mask-type="alpha" maskUnits="userSpaceOnUse" x="0" y="10" width="365" height="245">
<path fill-rule="evenodd" clip-rule="evenodd" d="M0 54.5303C0 26.4847 25.8865 5.59708 53.2986 11.524L330.089 71.3706C352.597 76.2372 367.545 97.6353 364.37 120.443L350.932 216.977C347.84 239.19 328.535 255.523 306.116 254.893L42.7633 247.488C18.9538 246.819 0 227.324 0 203.505V54.5303Z" fill="white"/>
</mask>
<g mask="url(#mask0)">
<path fill-rule="evenodd" clip-rule="evenodd" d="M68.2412 -62.9016L-59.9016 65.2412C-59.918 64.8147 -59.9344 64.3964 -59.9508 63.9781C-59.9672 63.5598 -59.9836 63.1415 -60 62.715L65.715 -63C66.1415 -62.9836 66.5598 -62.9672 66.9781 -62.9508C67.3964 -62.9344 67.8147 -62.918 68.2412 -62.9016ZM-59.1798 73.9677L76.9677 -62.1798C76.1804 -62.2783 75.393 -62.3767 74.6057 -62.4423L-59.4423 71.6057C-59.3767 72.393 -59.2783 73.1804 -59.1798 73.9677ZM85.1366 -60.9332L-57.9332 82.1366C-57.9988 81.7758 -58.0644 81.4068 -58.13 81.0378C-58.1956 80.6687 -58.2612 80.2995 -58.3269 79.9385L82.9385 -61.3269C83.2995 -61.2612 83.6687 -61.1956 84.0378 -61.13C84.4068 -61.0644 84.7758 -60.9988 85.1366 -60.9332ZM-56.2272 89.879L92.879 -59.2272C92.5345 -59.3093 92.1817 -59.3995 91.8291 -59.4897C91.4764 -59.5799 91.1238 -59.6701 90.7793 -59.7521L-56.7521 87.7793C-56.6701 88.1238 -56.5799 88.4764 -56.4897 88.8291C-56.3995 89.1817 -56.3093 89.5345 -56.2272 89.879ZM100.195 -57.1276L-54.1276 97.1948C-54.3245 96.5387 -54.5213 95.8826 -54.7509 95.2264L98.2264 -57.7509C98.8826 -57.5213 99.5387 -57.3245 100.195 -57.1276ZM-51.6343 104.15L107.15 -54.6343C106.527 -54.8968 105.903 -55.1264 105.28 -55.3561L-52.3561 102.28C-52.1264 102.903 -51.8968 103.527 -51.6343 104.15ZM113.777 -51.8129L-48.8129 110.777C-49.1081 110.186 -49.3705 109.596 -49.6329 109.006L-49.6331 109.005L112.005 -52.6331L112.006 -52.6329C112.596 -52.3705 113.186 -52.1081 113.777 -51.8129ZM-45.6963 117.076L120.076 -48.6963L120.075 -48.6968C119.517 -48.9919 118.96 -49.287 118.37 -49.5821L-46.5821 115.37C-46.287 115.96 -45.9919 116.517 -45.6968 117.075L-45.6963 117.076ZM126.079 -45.2844L-42.2844 123.079C-42.4683 122.752 -42.6649 122.426 -42.8663 122.091L-42.8668 122.09L-42.8674 122.089L-42.8678 122.088L-42.8684 122.087C-42.9897 121.885 -43.1128 121.681 -43.2358 121.472L124.472 -46.2358C124.681 -46.1128 124.885 -45.9897 125.087 -45.8684L125.088 -45.8678L125.089 -45.8674L125.09 -45.8668L125.091 -45.8663C125.426 -45.6649 125.752 -45.4683 126.079 -45.2844ZM-38.5773 128.82L131.82 -41.5773C131.702 -41.656 131.582 -41.7366 131.461 -41.8182L131.452 -41.8243L131.451 -41.8252C131.069 -42.0815 130.674 -42.3472 130.279 -42.5943L-39.5943 127.279C-39.3472 127.674 -39.0815 128.069 -38.8252 128.451L-38.8243 128.452L-38.8182 128.461C-38.7366 128.582 -38.656 128.702 -38.5773 128.82ZM137.299 -37.5749L-34.5749 134.299C-34.9684 133.807 -35.3291 133.315 -35.6899 132.823L-35.69 132.823L-35.6903 132.823L135.823 -38.6903L135.823 -38.69C136.315 -38.3292 136.807 -37.9684 137.299 -37.5749ZM-30.3428 139.483L142.483 -33.3428C142.253 -33.5396 142.015 -33.7365 141.777 -33.9333C141.539 -34.1302 141.302 -34.327 141.072 -34.5238L-31.5238 138.072C-31.327 138.302 -31.1302 138.539 -30.9333 138.777C-30.7365 139.015 -30.5396 139.253 -30.3428 139.483ZM147.404 -28.8483L-25.8483 144.404C-26.0615 144.19 -26.2666 143.969 -26.4716 143.747C-26.6766 143.526 -26.8817 143.305 -27.0949 143.091L146.091 -30.0949C146.305 -29.8817 146.526 -29.6766 146.747 -29.4716C146.969 -29.2666 147.19 -29.0615 147.404 -28.8483ZM-21.0913 149.095L152.095 -24.0913C151.882 -24.3046 151.677 -24.5261 151.472 -24.7475C151.267 -24.969 151.062 -25.1904 150.848 -25.4036L-22.4036 147.848C-22.1904 148.062 -21.969 148.267 -21.7475 148.472C-21.5261 148.677 -21.3046 148.882 -21.0913 149.095ZM156.524 -19.0719L-16.0719 153.524C-16.3016 153.327 -16.5394 153.13 -16.7773 152.933C-17.0151 152.736 -17.2529 152.54 -17.4826 152.343L155.343 -20.4826C155.54 -20.2529 155.736 -20.0151 155.933 -19.7773C156.13 -19.5394 156.327 -19.3016 156.524 -19.0719ZM-10.8228 157.69L160.69 -13.8228C160.329 -14.3149 159.969 -14.807 159.575 -15.2991L-12.2991 156.575C-11.807 156.969 -11.3149 157.329 -10.8228 157.69ZM164.594 -8.27852L-5.27852 161.594C-5.67333 161.348 -6.06814 161.082 -6.44899 160.826L-6.44956 160.826L-6.45009 160.826C-6.57521 160.741 -6.69883 160.658 -6.82043 160.577L163.577 -9.82043C163.658 -9.69883 163.741 -9.57521 163.826 -9.45009L163.826 -9.44956L163.826 -9.44899C164.082 -9.06814 164.348 -8.67333 164.594 -8.27852ZM0.528252 165.236L168.236 -2.47175C168.113 -2.68126 167.989 -2.88615 167.868 -3.08815C167.666 -3.42385 167.469 -3.75156 167.284 -4.07927L-1.07927 164.284C-0.75156 164.469 -0.423847 164.666 -0.0881462 164.868C0.11385 164.989 0.318737 165.113 0.528252 165.236ZM171.582 3.63029L6.63029 168.582C6.04043 168.287 5.4833 167.992 4.9262 167.697L4.92435 167.696L170.696 1.92435L170.697 1.9262C170.992 2.4833 171.287 3.04043 171.582 3.63029ZM12.9948 171.633L174.633 9.99478C174.371 9.40426 174.108 8.81374 173.813 8.22322L11.2232 170.813C11.8137 171.108 12.4043 171.371 12.9948 171.633ZM177.356 16.7201L19.7201 174.356C19.0968 174.126 18.4735 173.897 17.8502 173.634L176.634 14.8502C176.897 15.4735 177.126 16.0968 177.356 16.7201ZM26.7736 176.751L179.751 23.7736C179.521 23.1177 179.325 22.4618 179.128 21.8059L179.128 21.8052L24.8052 176.128L24.8059 176.128C25.4618 176.325 26.1177 176.521 26.7736 176.751ZM181.752 31.2207L34.2207 178.752C33.8773 178.67 33.5257 178.58 33.1742 178.491L33.1735 178.49L33.1731 178.49L33.1709 178.49L33.1686 178.489C32.8167 178.399 32.4648 178.309 32.121 178.227L181.227 29.121C181.309 29.4648 181.399 29.8167 181.489 30.1686L181.49 30.1709L181.49 30.1731L181.49 30.1735L181.491 30.1742C181.58 30.5257 181.67 30.8773 181.752 31.2207ZM42.0615 180.327L183.327 39.0615C183.261 38.7006 183.196 38.3315 183.13 37.9624L183.13 37.9614C183.064 37.5927 182.999 37.224 182.933 36.8634L39.8634 179.933C40.224 179.999 40.5927 180.064 40.9614 180.13L40.9624 180.13C41.3315 180.196 41.7006 180.261 42.0615 180.327ZM184.442 47.3943L50.3943 181.442C49.607 181.377 48.8196 181.278 48.0323 181.18L184.18 45.0323C184.278 45.8196 184.377 46.607 184.442 47.3943ZM59.2849 182L185 56.2849L184.97 55.5212L184.951 55.022C184.934 54.6037 184.918 54.1854 184.902 53.7588L56.7588 181.902C57.1854 181.918 57.6037 181.934 58.022 181.951C58.4403 181.967 58.8585 181.984 59.2849 182ZM184.869 65.8317L68.8317 181.869C67.9459 181.934 67.0273 181.967 66.1415 181.967L184.967 63.1415C184.967 64.0273 184.934 64.9459 184.869 65.8317ZM79.2642 180.885L183.885 76.2642C184.016 75.28 184.147 74.263 184.245 73.2788L76.2788 181.245C77.263 181.147 78.28 181.016 79.2642 180.885ZM181.719 87.8449L90.8449 178.719L90.5877 178.78L90.3099 178.846L90.308 178.846L90.3047 178.847C89.3776 179.066 88.466 179.281 87.5315 179.474L182.474 84.5315C182.281 85.466 182.066 86.3776 181.847 87.3047L181.846 87.308L181.846 87.3099L181.845 87.3106L181.782 87.5805L181.719 87.8449ZM104.296 174.717L177.717 101.296L177.717 101.295L177.717 101.294L177.718 101.294L177.718 101.293L177.718 101.292L177.718 101.292L177.719 101.291L177.719 101.291L177.719 101.29L177.719 101.289L177.719 101.289L177.72 101.288L177.72 101.287L177.72 101.287L177.72 101.286L177.721 101.285L177.721 101.285L177.721 101.284L177.721 101.283L177.722 101.283L177.722 101.282L177.722 101.282L177.722 101.281L177.722 101.28L177.723 101.28L177.723 101.279L177.723 101.278L177.723 101.278L177.724 101.277L177.724 101.276L177.724 101.276L177.724 101.275L177.724 101.275L177.725 101.274L177.725 101.273C178.182 99.9684 178.638 98.6637 179.062 97.3589L100.359 176.062C101.664 175.638 102.968 175.182 104.273 174.725L104.274 174.725L104.275 174.724L104.275 174.724L104.276 174.724L104.276 174.724L104.277 174.724L104.278 174.723L104.278 174.723L104.279 174.723L104.28 174.723L104.28 174.722L104.281 174.722L104.282 174.722L104.282 174.722L104.283 174.722L104.283 174.721L104.284 174.721L104.285 174.721L104.285 174.721L104.286 174.72L104.287 174.72L104.287 174.72L104.288 174.72L104.289 174.719L104.289 174.719L104.29 174.719L104.291 174.719L104.291 174.719L104.292 174.718L104.292 174.718L104.293 174.718L104.294 174.718L104.294 174.717L104.295 174.717L104.296 174.717ZM121.552 166.909L169.909 118.552C170.893 116.78 171.812 114.976 172.698 113.172L116.172 169.698C117.976 168.812 119.78 167.893 121.552 166.909ZM-59.9672 55.8585L58.8585 -62.9672C57.9727 -62.9672 57.0541 -62.9344 56.1683 -62.8688L-59.8688 53.1683C-59.9344 54.0541 -59.9672 54.9727 -59.9672 55.8585ZM48.7212 -62.2454L-59.2454 45.7212C-59.147 44.737 -59.0158 43.72 -58.8846 42.7358L45.7358 -61.8846C46.72 -62.0158 47.737 -62.147 48.7212 -62.2454ZM-57.4739 34.4685L37.4685 -60.4739C36.5322 -60.2811 35.619 -60.0652 34.6901 -59.8456L34.6891 -59.8454C34.5117 -59.8035 34.3338 -59.7614 34.1551 -59.7193L-56.7193 31.1551C-56.7614 31.3338 -56.8035 31.5117 -56.8454 31.6891L-56.8456 31.6901C-57.0652 32.619 -57.2811 33.5322 -57.4739 34.4685ZM24.6411 -57.062L-54.062 21.6411C-53.6355 20.3289 -53.1762 19.0166 -52.7169 17.7043L20.7043 -55.7169C22.0166 -56.1762 23.3289 -56.6355 24.6411 -57.062ZM-47.6975 5.82834L8.82834 -50.6975C7.02397 -49.8117 5.2196 -48.8931 3.44804 -47.9089L-44.9089 0.448044C-45.8931 2.2196 -46.8117 4.02397 -47.6975 5.82834Z" fill="#E5E5EA"/>
</g>
</svg>
