<svg width="52" height="52" viewBox="0 0 52 52" fill="none" xmlns="http://www.w3.org/2000/svg">
<path fill-rule="evenodd" clip-rule="evenodd" d="M26 0C11.6406 0 0 11.6406 0 26C0 40.3594 11.6406 52 26 52C40.3594 52 52 40.3594 52 26C52 19.1044 49.2607 12.4912 44.3848 7.61522C39.5088 2.73928 32.8956 0 26 0ZM20.8 20.8C20.8 19.3641 19.6359 18.2 18.2 18.2C16.7641 18.2 15.6 19.3641 15.6 20.8C15.6 22.2359 16.7641 23.4 18.2 23.4C19.6359 23.4 20.8 22.2359 20.8 20.8ZM32.5 31.356C31.9038 31.0066 31.193 30.909 30.5247 31.0846C29.8564 31.2602 29.2854 31.6947 28.938 32.292C28.3371 33.3484 27.2153 34.0009 26 34.0009C24.7847 34.0009 23.6629 33.3484 23.062 32.292C22.7146 31.6947 22.1436 31.2602 21.4753 31.0846C20.807 30.909 20.0962 31.0066 19.5 31.356C18.262 32.07 17.8324 33.6493 18.538 34.892C20.0729 37.5635 22.9189 39.2106 26 39.2106C29.0811 39.2106 31.9271 37.5635 33.462 34.892C34.1676 33.6493 33.738 32.07 32.5 31.356ZM31.2 20.8C31.2 19.3641 32.3641 18.2 33.8 18.2C35.2359 18.2 36.4 19.3641 36.4 20.8C36.4 22.2359 35.2359 23.4 33.8 23.4C32.3641 23.4 31.2 22.2359 31.2 20.8ZM5.49254 29.9699C7.3993 39.777 16.0094 46.8431 26 46.8C37.4875 46.8 46.8 37.4875 46.8 26C46.8 14.5125 37.4875 5.2 26 5.2C24.5641 5.2 23.4 6.36406 23.4 7.8C23.4 9.23594 24.5641 10.4 26 10.4C27.4359 10.4 28.6 11.5641 28.6 13C28.6 14.4359 27.4359 15.6 26 15.6C21.6922 15.6 18.2 12.1078 18.2 7.8C18.1733 7.42781 18.1733 7.05419 18.2 6.682C8.92101 10.3854 3.58579 20.1628 5.49254 29.9699Z" fill="#956B74"/>
</svg>
