<svg width="72" height="37" viewBox="0 0 72 37" fill="none" xmlns="http://www.w3.org/2000/svg">
<path d="M12.5005 21.6534C12.9898 21.6534 13.3976 21.4903 13.7238 21.1641C14.05 20.8379 14.2131 20.4403 14.2131 19.9714C14.2131 19.4821 14.05 19.0794 13.7238 18.7634C13.3976 18.4474 12.9898 18.2894 12.5005 18.2894V18.2894H6.09796L13.4485 8.77861C13.6616 8.50745 13.7964 8.2731 13.8531 8.07554L13.8614 8.04466C13.9124 7.84078 13.948 7.6369 13.9684 7.43303C14.0092 6.90295 13.8665 6.46462 13.5403 6.11803C13.2141 5.77144 12.8165 5.59814 12.3476 5.59814V5.59814H2.92854C2.43924 5.59814 2.03148 5.75615 1.70528 6.07216C1.37908 6.38816 1.21598 6.78063 1.21598 7.24954C1.21598 7.73884 1.37908 8.14659 1.70528 8.4728C2.03148 8.799 2.43924 8.9621 2.92854 8.9621V8.9621H8.86668L1.58296 18.3812C1.35054 18.6717 1.20092 18.93 1.1341 19.1561L1.12424 19.1916C1.06307 19.426 1.0223 19.6962 1.00191 20.002C0.981524 20.369 1.12424 20.7359 1.43005 21.1029C1.73586 21.4699 2.14362 21.6534 2.65331 21.6534V21.6534H12.5005Z" fill="black" stroke="black" stroke-width="1.04651"/>
<path d="M25.2577 21.9593C27.5207 21.9593 29.2537 21.3273 30.4566 20.0633C31.6594 18.7993 32.2609 17.0867 32.2609 14.9256V14.9256V7.15795C32.2609 6.62787 32.0876 6.18444 31.741 5.82765C31.3944 5.47087 30.956 5.29248 30.426 5.29248C29.8959 5.29248 29.4576 5.47087 29.111 5.82765C28.7644 6.18444 28.5911 6.62787 28.5911 7.15795V7.15795V14.9256C28.5911 16.1693 28.3159 17.0918 27.7654 17.6932C27.2149 18.2947 26.379 18.5954 25.2577 18.5954C24.1568 18.5954 23.3311 18.2947 22.7806 17.6932C22.2302 17.0918 21.9549 16.1693 21.9549 14.9256V14.9256V7.15795C21.9549 6.62787 21.7816 6.18444 21.435 5.82765C21.0885 5.47087 20.6501 5.29248 20.12 5.29248C19.59 5.29248 19.1516 5.47087 18.805 5.82765C18.4585 6.18444 18.2852 6.62787 18.2852 7.15795V7.15795V14.9256C18.2852 17.0867 18.8815 18.7993 20.0742 20.0633C21.2668 21.3273 22.9947 21.9593 25.2577 21.9593Z" fill="black" stroke="black" stroke-width="1.04651"/>
<path d="M39.7765 26.2465C40.3066 26.2465 40.75 26.0681 41.1068 25.7113C41.4635 25.3546 41.6419 24.9111 41.6419 24.381L41.6234 2.86547C41.6234 2.33539 41.4552 1.89196 41.1188 1.53517C40.7824 1.17839 40.3492 1 39.8191 1C39.289 1 38.8456 1.17839 38.4888 1.53517C38.132 1.89196 37.9536 2.33539 37.9536 2.86547L37.9722 24.381C37.9722 24.9111 38.1455 25.3546 38.4921 25.7113C38.8386 26.0681 39.2668 26.2465 39.7765 26.2465Z" fill="black" stroke="black" stroke-width="1.04651"/>
<path d="M49.4449 26.2465C49.975 26.2465 50.4184 26.0681 50.7752 25.7113C51.132 25.3546 51.3104 24.9111 51.3104 24.381L51.2918 2.86547C51.2918 2.33539 51.1236 1.89196 50.7872 1.53517C50.4508 1.17839 50.0176 1 49.4875 1C48.9575 1 48.514 1.17839 48.1572 1.53517C47.8005 1.89196 47.6221 2.33539 47.6221 2.86547L47.6406 24.381C47.6406 24.9111 47.8139 25.3546 48.1605 25.7113C48.5071 26.0681 48.9352 26.2465 49.4449 26.2465Z" fill="black" stroke="black" stroke-width="1.04651"/>
<path d="M29.8519 27.0024C34.0712 32.0412 38.9937 34.5606 44.6194 34.5606C50.2451 34.5606 55.1675 32.0412 59.3868 27.0024" stroke="#3E46B1" stroke-width="4.22555" stroke-linecap="round" stroke-linejoin="round"/>
<path d="M63.8043 21.9593C66.0674 21.9593 67.8003 21.3273 69.0032 20.0633C70.2061 18.7993 70.8075 17.0867 70.8075 14.9256V14.9256V7.15795C70.8075 6.62787 70.6342 6.18444 70.2876 5.82765C69.941 5.47087 69.5027 5.29248 68.9726 5.29248C68.4425 5.29248 68.0042 5.47087 67.6576 5.82765C67.311 6.18444 67.1377 6.62787 67.1377 7.15795V7.15795V14.9256C67.1377 16.1693 66.8625 17.0918 66.312 17.6932C65.7616 18.2947 64.9257 18.5954 63.8043 18.5954C62.7034 18.5954 61.8777 18.2947 61.3273 17.6932C60.7768 17.0918 60.5016 16.1693 60.5016 14.9256V14.9256V7.15795C60.5016 6.62787 60.3283 6.18444 59.9817 5.82765C59.6351 5.47087 59.1967 5.29248 58.6667 5.29248C58.1366 5.29248 57.6983 5.47087 57.3517 5.82765C57.0051 6.18444 56.8318 6.62787 56.8318 7.15795V7.15795V14.9256C56.8318 17.0867 57.4281 18.7993 58.6208 20.0633C59.8135 21.3273 61.5413 21.9593 63.8043 21.9593Z" fill="black" stroke="black" stroke-width="1.04651"/>
</svg>
