<svg width="96" height="96" viewBox="0 0 96 96" fill="none" xmlns="http://www.w3.org/2000/svg">
<path fill-rule="evenodd" clip-rule="evenodd" d="M81.6 0H14.4C6.4471 0 0 6.4471 0 14.4V81.6C0 89.5529 6.4471 96 14.4 96H81.6C89.5529 96 96 89.5529 96 81.6V14.4C96 6.4471 89.5529 0 81.6 0ZM35.424 81.216C34.8469 81.462 34.2273 81.5924 33.6 81.6C30.949 81.6 28.8 79.451 28.8 76.8C28.7947 76.1404 28.9254 75.4868 29.184 74.88C29.4125 74.2908 29.755 73.7525 30.192 73.296C30.4281 73.0788 30.6854 72.8859 30.96 72.72C31.205 72.53 31.4811 72.3839 31.776 72.288L32.64 72C33.5855 71.8474 34.5551 71.9811 35.424 72.384C36.6299 72.8204 37.5796 73.7701 38.016 74.976C38.262 75.5531 38.3924 76.1728 38.4 76.8C38.4236 77.1196 38.4236 77.4404 38.4 77.76C38.3174 78.0661 38.1878 78.3575 38.016 78.624C37.9201 78.9189 37.774 79.195 37.584 79.44C37.4181 79.7146 37.2252 79.9719 37.008 80.208C36.5414 80.632 36.0057 80.9729 35.424 81.216ZM17.376 81.216C16.7943 80.9729 16.2586 80.632 15.792 80.208C15.368 79.7414 15.0271 79.2057 14.784 78.624C14.538 78.0469 14.4076 77.4273 14.4 76.8C14.3764 76.4804 14.3764 76.1596 14.4 75.84C14.5123 75.528 14.6744 75.2362 14.88 74.976C14.9759 74.6811 15.122 74.4051 15.312 74.16C15.4779 73.8854 15.6708 73.6281 15.888 73.392C16.3445 72.955 16.8828 72.6125 17.472 72.384C19.2595 71.6323 21.3237 72.03 22.704 73.392C22.9212 73.6281 23.1141 73.8854 23.28 74.16C23.47 74.4051 23.6161 74.6811 23.712 74.976C23.8504 75.2481 23.9475 75.5393 24 75.84C24.0236 76.1596 24.0236 76.4804 24 76.8C24.0317 77.4618 23.8998 78.1213 23.616 78.72C23.3729 79.3017 23.032 79.8374 22.608 80.304L21.888 80.88C21.6204 81.0617 21.3299 81.2069 21.024 81.312C20.7382 81.4582 20.4299 81.5555 20.112 81.6H19.2C18.5727 81.5924 17.9531 81.462 17.376 81.216ZM81.6 86.4C84.251 86.4 86.4 84.251 86.4 81.6V67.2H9.6V81.6C9.6 84.251 11.749 86.4 14.4 86.4H81.6ZM86.4 57.6H9.6V38.4H28.8C30.0759 38.4074 31.3022 37.9065 32.208 37.008L38.4 31.008L51.84 46.368C52.7164 47.367 53.9678 47.9579 55.296 48C56.5719 48.0074 57.7981 47.5065 58.704 46.608L66.768 38.4H86.4V57.6ZM64.8 28.8H86.4V14.4C86.4 11.749 84.251 9.6 81.6 9.6H14.4C11.749 9.6 9.6 11.749 9.6 14.4V28.8H26.832L34.992 20.832C35.8995 19.8626 37.1681 19.3125 38.496 19.3125C39.8239 19.3125 41.0925 19.8626 42 20.832L55.44 36.192L61.392 30.192C62.2979 29.2935 63.5241 28.7926 64.8 28.8Z" fill="#3E46B1"/>
</svg>
