<svg width="44" height="48" viewBox="0 0 44 48" fill="none" xmlns="http://www.w3.org/2000/svg">
<path fill-rule="evenodd" clip-rule="evenodd" d="M1.09849 39.981H8.66274V46.4654C8.66274 46.7809 8.76368 47.0392 8.96677 47.241C9.1693 47.4442 9.42822 47.5458 9.74362 47.5458H15.3826C15.6753 47.5458 15.9285 47.4442 16.1424 47.241C16.3563 47.0392 16.463 46.7808 16.463 46.4654V39.981H33.5159C33.8307 39.981 34.0897 39.8807 34.2927 39.6775C34.4959 39.4745 34.5967 39.2161 34.5967 38.9006V34.5781C34.5967 34.2645 34.4959 34.0043 34.2927 33.8024C34.0902 33.5993 33.8307 33.4977 33.5159 33.4977H16.4624V29.5128H27.9436C32.4459 29.5128 36.1204 28.141 38.969 25.3933C41.8165 22.6485 43.2409 19.103 43.2409 14.7564C43.2409 10.4127 41.8165 6.86708 38.969 4.11952C36.121 1.37466 32.4458 0 27.9436 0H9.74306C9.42757 0 9.16921 0.101499 8.96621 0.303472C8.76368 0.506563 8.66218 0.766602 8.66218 1.08033V22.3211H1.09849C0.783092 22.3211 0.524638 22.4278 0.32164 22.6416C0.119201 22.8556 0.0176086 23.1088 0.0176086 23.4014V28.4323C0.0176086 28.7478 0.118548 29.0063 0.32164 29.2093C0.524731 29.4124 0.782533 29.5127 1.09849 29.5127H8.66274V33.4976H1.09849C0.783092 33.4976 0.524638 33.5992 0.32164 33.8023C0.119201 34.0042 0.0176086 34.2638 0.0176086 34.578V38.9005C0.0176086 39.216 0.118548 39.4745 0.32164 39.6775C0.524638 39.8807 0.782999 39.981 1.09849 39.981ZM16.4624 7.19338H27.2683C29.6543 7.19338 31.5788 7.89101 33.0425 9.28674C34.5056 10.6826 35.2374 12.5067 35.2374 14.757C35.2374 17.0084 34.5056 18.8331 33.0425 20.2272C31.5788 21.6241 29.6542 22.3218 27.2683 22.3218H16.4624V7.19338Z" fill="url(#paint0_linear)"/>
<defs>
<linearGradient id="paint0_linear" x1="3.38037" y1="0" x2="3.38037" y2="40.1477" gradientUnits="userSpaceOnUse">
<stop stop-color="#F0D5DC"/>
<stop offset="1" stop-color="#DBDDFC"/>
</linearGradient>
</defs>
</svg>
