<svg width="47" height="52" viewBox="0 0 47 52" fill="none" xmlns="http://www.w3.org/2000/svg">
<path fill-rule="evenodd" clip-rule="evenodd" d="M9.29442 42.8963H1.17862C0.840121 42.8963 0.562921 42.7887 0.345121 42.5706C0.127221 42.3528 0.0189209 42.0755 0.0189209 41.737V37.0993C0.0189209 36.7622 0.127921 36.4837 0.345121 36.2671C0.562921 36.0491 0.840221 35.9401 1.17862 35.9401H9.29442V31.6647H1.17862C0.839621 31.6647 0.563021 31.5571 0.345121 31.3391C0.127221 31.1213 0.0189209 30.844 0.0189209 30.5055V25.1077C0.0189209 24.7938 0.127921 24.5221 0.345121 24.2926C0.562921 24.0632 0.840221 23.9487 1.17862 23.9487H9.29382V1.1591C9.29382 0.8225 9.40272 0.5435 9.62002 0.3256C9.83782 0.1089 10.115 0 10.4535 0H29.9812C34.8116 0 38.7548 1.4749 41.8105 4.4199C44.8656 7.3678 46.3939 11.172 46.3939 15.8324C46.3939 20.4959 44.8656 24.3 41.8105 27.2449C38.7542 30.1929 34.8117 31.6648 29.9812 31.6648H17.6628V35.9402H35.9598C36.2975 35.9402 36.576 36.0492 36.7932 36.2672C37.0112 36.4838 37.1194 36.7629 37.1194 37.0994V41.7371C37.1194 42.0756 37.0112 42.3529 36.7932 42.5707C36.5754 42.7887 36.2975 42.8963 35.9598 42.8963H17.6634V49.8535C17.6634 50.1919 17.549 50.4691 17.3195 50.6857C17.09 50.9037 16.8183 51.0127 16.5043 51.0127H10.4541C10.1157 51.0127 9.83792 50.9037 9.62062 50.6857C9.40272 50.4691 9.29442 50.192 9.29442 49.8535V42.8963ZM29.2566 7.7179H17.6628V23.9494H29.2566C31.8165 23.9494 33.8814 23.2009 35.4519 21.7021C37.0216 20.2063 37.8068 18.2486 37.8068 15.833C37.8068 13.4186 37.0216 11.4615 35.4519 9.9639C33.8814 8.4664 31.8166 7.7179 29.2566 7.7179Z" fill="black"/>
</svg>
