<svg width="87" height="96" viewBox="0 0 87 96" fill="none" xmlns="http://www.w3.org/2000/svg">
<path fill-rule="evenodd" clip-rule="evenodd" d="M17.3255 79.962H2.197C1.56601 79.962 1.04929 79.7615 0.643295 79.3549C0.237112 78.9489 0.0352325 78.432 0.0352325 77.801V69.156C0.0352325 68.5276 0.238417 68.0085 0.643295 67.6047C1.04929 67.1983 1.5662 66.9951 2.197 66.9951H17.3255V59.0255H2.197C1.56508 59.0255 1.04948 58.8249 0.643295 58.4185C0.237112 58.0125 0.0352325 57.4956 0.0352325 56.8646V46.8027C0.0352325 46.2176 0.238417 45.7111 0.643295 45.2833C1.04929 44.8557 1.5662 44.6422 2.197 44.6422H17.3244V2.16065C17.3244 1.5332 17.5274 1.01313 17.9324 0.606944C18.3384 0.202998 18.8551 0 19.4861 0H55.8873C64.8915 0 72.242 2.74933 77.938 8.23904C83.633 13.7342 86.4818 20.8255 86.4818 29.5128C86.4818 38.206 83.633 45.2971 77.938 50.7866C72.2408 56.2819 64.8917 59.0257 55.8873 59.0257H32.9248V66.9953H67.0319C67.6614 66.9953 68.1805 67.1985 68.5854 67.6049C68.9918 68.0086 69.1935 68.5289 69.1935 69.1562V77.8012C69.1935 78.4322 68.9918 78.9491 68.5854 79.3551C68.1794 79.7615 67.6614 79.962 67.0319 79.962H32.926V92.9308C32.926 93.5616 32.7127 94.0783 32.2849 94.4821C31.8571 94.8885 31.3506 95.0916 30.7653 95.0916H19.4873C18.8565 95.0916 18.3386 94.8885 17.9335 94.4821C17.5274 94.0783 17.3255 93.5618 17.3255 92.9308V79.962ZM54.5366 14.3868H32.9248V44.6435H54.5366C59.3084 44.6435 63.1576 43.2483 66.0851 40.4544C69.0111 37.6661 70.4748 34.0168 70.4748 29.5139C70.4748 25.0133 69.0111 21.3651 66.0851 18.5735C63.1576 15.782 59.3086 14.3868 54.5366 14.3868Z" fill="#3E46B1"/>
</svg>
