<svg width="377" height="377" viewBox="0 0 377 377" fill="none" xmlns="http://www.w3.org/2000/svg">
<path fill-rule="evenodd" clip-rule="evenodd" d="M197 0.15119L0.15119 197C0.125991 196.345 0.100793 195.702 0.0755947 195.06L0.0755033 195.057C0.0503355 194.416 0.0251678 193.774 0 193.119L193.119 0C193.774 0.0251678 194.416 0.0503355 195.057 0.0755033L195.06 0.0755947C195.702 0.100793 196.345 0.125991 197 0.15119ZM1.40404 211L211 1.40404L211 1.40402C209.788 1.25251 208.576 1.10101 207.364 1L1 207.364C1.10101 208.576 1.25251 209.788 1.40402 211L1.40404 211ZM223 2.60645L2.60645 223C2.50545 222.445 2.40445 221.876 2.30345 221.308L2.30342 221.308L2.30339 221.308L2.30335 221.308L2.30332 221.308L2.30329 221.307L2.30326 221.307L2.30322 221.307L2.30283 221.305L2.30279 221.305L2.30276 221.304L2.30273 221.304L2.3027 221.304L2.30267 221.304L2.30263 221.304C2.20176 220.736 2.10088 220.169 2 219.614L219.614 2C220.169 2.10088 220.736 2.20176 221.304 2.30263L221.304 2.30267L221.304 2.3027L221.304 2.30273L221.304 2.30276L221.305 2.30279L221.305 2.30283L221.307 2.30322L221.307 2.30326L221.307 2.30329L221.308 2.30332L221.308 2.30335L221.308 2.30339L221.308 2.30342L221.308 2.30345C221.876 2.40445 222.445 2.50545 223 2.60645ZM5.80684 235L235 5.80684C234.471 5.68077 233.928 5.5421 233.386 5.40342C232.844 5.26474 232.302 5.12607 231.773 5L5 231.773C5.12607 232.302 5.26474 232.844 5.40342 233.386C5.5421 233.928 5.68077 234.471 5.80684 235ZM246 8.95744L8.95744 246L8.95736 246C8.65504 244.992 8.35271 243.984 8 242.977L242.977 8C243.984 8.35271 244.992 8.65504 246 8.95736L246 8.95744ZM13.1086 257L257 13.1086C256.043 12.7055 255.085 12.3527 254.128 12L12 254.128C12.3527 255.085 12.7055 256.043 13.1086 257ZM267 17.2598L17.2598 267C16.8063 266.093 16.4031 265.186 16 264.279L264.279 16C265.186 16.4031 266.093 16.8063 267 17.2598ZM22.3606 277L277 22.3606C276.143 21.9071 275.287 21.4535 274.38 21L21 274.38C21.4535 275.287 21.9071 276.143 22.3606 277ZM287 27.4666L27.4666 287C27.1825 286.495 26.8788 285.99 26.5676 285.473L26.5671 285.472C26.3799 285.161 26.1899 284.845 26 284.522L284.522 26C284.845 26.1899 285.161 26.3799 285.472 26.5671L285.473 26.5676C285.99 26.8788 286.495 27.1825 287 27.4666ZM32.5663 295L295 32.5663C294.813 32.4414 294.622 32.3135 294.43 32.184L294.429 32.1837L294.426 32.1813L294.424 32.18L294.423 32.1793C293.838 31.7862 293.231 31.3789 292.625 31L31 292.625C31.3789 293.231 31.7862 293.838 32.1793 294.423L32.18 294.424L32.1813 294.426L32.1837 294.429L32.184 294.43C32.3135 294.622 32.4414 294.813 32.5663 295ZM304 39.7152L39.7152 304C39.1098 303.243 38.5549 302.487 38 301.73L301.73 38C302.487 38.5549 303.243 39.1098 304 39.7152ZM45.819 312L312 45.819C311.646 45.5158 311.28 45.2127 310.914 44.9095C310.547 44.6063 310.181 44.3032 309.827 44L44 309.827C44.3032 310.181 44.6063 310.547 44.9095 310.914C45.2127 311.28 45.5158 311.646 45.819 312ZM319 51.9218L51.9218 319C51.5931 318.671 51.277 318.33 50.9609 317.989C50.6448 317.647 50.3287 317.306 50 316.977L316.977 50C317.306 50.3287 317.647 50.6448 317.989 50.9609C318.33 51.277 318.671 51.5931 319 51.9218ZM60.0229 327L327 60.0229C326.671 59.6943 326.355 59.3529 326.039 59.0116L326.039 59.0115C325.723 58.6701 325.407 58.3287 325.078 58L58 325.078C58.3287 325.407 58.6701 325.723 59.0115 326.039L59.0116 326.039C59.3529 326.355 59.6943 326.671 60.0229 327ZM333 67.1727L67.1727 333C66.819 332.697 66.4527 332.394 66.0863 332.091C65.72 331.787 65.3537 331.484 65 331.181L331.181 65C331.484 65.3537 331.787 65.72 332.091 66.0863C332.394 66.4527 332.697 66.819 333 67.1727ZM75.2701 339L339 75.2701C338.445 74.5134 337.89 73.7567 337.285 73L73 337.285C73.7567 337.89 74.5134 338.445 75.2701 339ZM346 84.3747L84.3747 346C83.7662 345.62 83.1577 345.211 82.5707 344.816L82.5666 344.813C82.3752 344.685 82.1861 344.558 82 344.434L344.434 82C344.48 82.0688 344.526 82.1379 344.572 82.2075L344.744 82.4629L344.804 82.5522L344.816 82.5707C345.211 83.1577 345.62 83.7662 346 84.3747ZM92.478 351L351 92.478C350.912 92.3282 350.824 92.1798 350.736 92.0328L350.6 91.8065L350.481 91.6074L350.474 91.5963L350.462 91.5766L350.46 91.5726L350.453 91.5608L350.449 91.5541L350.447 91.5516L350.44 91.5393L350.436 91.5331L350.434 91.5299L350.433 91.5278C350.121 91.0103 349.818 90.5052 349.533 90L90 349.533C90.5052 349.818 91.0103 350.121 91.5278 350.433L91.5299 350.434L91.5331 350.436L91.5393 350.44L91.5516 350.447L91.5541 350.449L91.5608 350.453L91.5726 350.46L91.5766 350.462L91.5963 350.474L91.6074 350.481L91.8065 350.6L92.0328 350.736C92.1798 350.824 92.3282 350.912 92.478 351ZM356 102.62L102.62 356C101.713 355.546 100.857 355.093 100 354.639L354.639 100C355.093 100.857 355.546 101.713 356 102.62ZM112.721 361L361 112.721L360.999 112.719C360.596 111.813 360.193 110.906 359.74 110L110 359.74C110.906 360.193 111.813 360.596 112.719 360.999L112.721 361ZM365 122.872L122.872 365C121.915 364.647 120.957 364.295 120 363.891L363.891 120C364.295 120.957 364.647 121.915 365 122.872ZM134.023 369L369 134.023C368.648 133.019 368.347 132.014 368.046 131.009L368.045 131.009L368.045 131.009L368.045 131.008L368.045 131.008L368.045 131.008L368.045 131.008L368.045 131.007L368.045 131.007L368.045 131.007L368.045 131.007L368.045 131.006L368.044 131.006L368.044 131.006L368.044 131.005L368.044 131.005L368.044 131.005L368.044 131.005L368.044 131.004L368.044 131.004L368.044 131.004L368.044 131.003L368.044 131.003L368.043 131.003L368.043 131.003L368.043 131.002L368.043 131.002L368.043 131L131 368.043L131.002 368.043L131.002 368.043L131.003 368.043L131.003 368.043L131.003 368.044L131.003 368.044L131.004 368.044L131.004 368.044L131.004 368.044L131.005 368.044L131.005 368.044L131.005 368.044L131.005 368.044L131.006 368.044L131.006 368.044L131.006 368.045L131.007 368.045L131.007 368.045L131.007 368.045L131.007 368.045L131.008 368.045L131.008 368.045L131.008 368.045L131.008 368.045L131.009 368.045L131.009 368.045L131.009 368.046C132.014 368.347 133.019 368.648 134.023 369ZM372 145.227L145.227 372C144.698 371.874 144.156 371.735 143.614 371.597C143.072 371.458 142.529 371.319 142 371.193L371.193 142C371.319 142.529 371.458 143.072 371.597 143.614C371.735 144.156 371.874 144.698 372 145.227ZM157.386 375L375 157.386C374.899 156.831 374.798 156.263 374.697 155.695L374.697 155.693C374.596 155.124 374.495 154.556 374.394 154L154 374.394C154.556 374.495 155.124 374.596 155.693 374.697L155.702 374.698C155.971 374.746 156.239 374.794 156.507 374.842C156.802 374.894 157.096 374.947 157.386 375ZM376 169.636L169.636 376C168.424 375.899 167.212 375.747 166 375.596L375.596 166C375.747 167.212 375.899 168.424 376 169.636ZM183.881 377L377 183.881C376.95 182.57 376.899 181.31 376.849 180L180 376.849C181.31 376.899 182.57 376.95 183.881 377ZM376.848 198.143L198.143 376.848C196.779 376.949 195.364 377 194 377L377 194C377 195.364 376.949 196.779 376.848 198.143ZM214.59 375.445L375.445 214.59C375.647 213.077 375.849 211.513 376 210L210 376C211.513 375.849 213.077 375.647 214.59 375.445ZM371.84 232.095L232.095 371.84C231.834 371.901 231.574 371.963 231.315 372.024L231.284 372.031L231.273 372.034C229.844 372.372 228.44 372.704 227 373L373 227C372.704 228.44 372.372 229.844 372.034 231.273L372.031 231.284L372.024 231.315C371.963 231.574 371.901 231.834 371.84 232.095ZM253.053 365.932L365.932 253.053C366.638 251.035 367.344 249.018 368 247L247 368C249.018 367.344 251.035 366.638 253.053 365.932ZM279.281 353.708L353.708 279.281C355.223 276.554 356.637 273.777 358 271L271 358C273.777 356.637 276.554 355.223 279.281 353.708ZM0 183L183 0C181.636 0 180.221 0.0505246 178.857 0.151574L0.151574 178.857C0.0505246 180.221 0 181.636 0 183ZM167 1L1 167C1.15132 165.487 1.35308 163.923 1.55485 162.41L162.41 1.55485C163.923 1.35308 165.487 1.15132 167 1ZM4 150L150 4C148.56 4.29646 147.156 4.62848 145.727 4.9662C145.454 5.03077 145.18 5.09555 144.905 5.16033L5.16033 144.905C5.09555 145.18 5.03077 145.454 4.9662 145.727C4.62848 147.156 4.29646 148.56 4 150ZM130 9L9 130C9.65567 127.983 10.3618 125.965 11.0679 123.948L11.0679 123.947L123.947 11.0679L123.948 11.0679C125.965 10.3618 127.983 9.65567 130 9ZM19 106L106 19C103.223 20.3633 100.446 21.7771 97.7191 23.2919L23.2919 97.7191C21.7771 100.446 20.3633 103.223 19 106Z" fill="url(#paint0_linear)"/>
<defs>
<linearGradient id="paint0_linear" x1="29.3305" y1="0" x2="29.3305" y2="318.339" gradientUnits="userSpaceOnUse">
<stop stop-color="#F0D5DC"/>
<stop offset="1" stop-color="#DBDDFC"/>
</linearGradient>
</defs>
</svg>
