<svg width="177" height="177" viewBox="0 0 177 177" fill="none" xmlns="http://www.w3.org/2000/svg">
<mask id="mask0" mask-type="alpha" maskUnits="userSpaceOnUse" x="0" y="3" width="177" height="173">
<path fill-rule="evenodd" clip-rule="evenodd" d="M0 52.5616C0 31.8672 15.7847 14.5896 36.3948 12.7244L133.395 3.94617C156.814 1.8268 177 20.2686 177 43.7834V135.526C177 158.185 158.197 176.319 135.553 175.5L38.553 171.988C17.0389 171.21 0 153.543 0 132.015L0 52.5616Z" fill="white"/>
</mask>
<g mask="url(#mask0)">
<path fill-rule="evenodd" clip-rule="evenodd" d="M4.33376 8.66753C6.72723 8.66753 8.66753 6.72723 8.66753 4.33376C8.66753 1.94029 6.72723 0 4.33376 0C1.94029 0 0 1.94029 0 4.33376C0 6.72723 1.94029 8.66753 4.33376 8.66753ZM4.33376 27.3711C6.72723 27.3711 8.66753 25.4308 8.66753 23.0374C8.66753 20.6439 6.72723 18.7036 4.33376 18.7036C1.94029 18.7036 0 20.6439 0 23.0374C0 25.4308 1.94029 27.3711 4.33376 27.3711ZM27.3711 4.33376C27.3711 6.72723 25.4308 8.66753 23.0374 8.66753C20.6439 8.66753 18.7036 6.72723 18.7036 4.33376C18.7036 1.94029 20.6439 0 23.0374 0C25.4308 0 27.3711 1.94029 27.3711 4.33376ZM23.0374 27.3711C25.4308 27.3711 27.3711 25.4308 27.3711 23.0374C27.3711 20.6439 25.4308 18.7036 23.0374 18.7036C20.6439 18.7036 18.7036 20.6439 18.7036 23.0374C18.7036 25.4308 20.6439 27.3711 23.0374 27.3711ZM46.0747 4.33376C46.0747 6.72723 44.1344 8.66753 41.741 8.66753C39.3475 8.66753 37.4072 6.72723 37.4072 4.33376C37.4072 1.94029 39.3475 0 41.741 0C44.1344 0 46.0747 1.94029 46.0747 4.33376ZM41.741 27.3711C44.1344 27.3711 46.0747 25.4308 46.0747 23.0374C46.0747 20.6439 44.1344 18.7036 41.741 18.7036C39.3475 18.7036 37.4072 20.6439 37.4072 23.0374C37.4072 25.4308 39.3475 27.3711 41.741 27.3711ZM64.7784 4.33376C64.7784 6.72723 62.8381 8.66753 60.4446 8.66753C58.0511 8.66753 56.1108 6.72723 56.1108 4.33376C56.1108 1.94029 58.0511 0 60.4446 0C62.8381 0 64.7784 1.94029 64.7784 4.33376ZM60.4446 27.3711C62.8381 27.3711 64.7784 25.4308 64.7784 23.0374C64.7784 20.6439 62.8381 18.7036 60.4446 18.7036C58.0511 18.7036 56.1108 20.6439 56.1108 23.0374C56.1108 25.4308 58.0511 27.3711 60.4446 27.3711ZM83.482 4.33376C83.482 6.72723 81.5417 8.66753 79.1482 8.66753C76.7547 8.66753 74.8144 6.72723 74.8144 4.33376C74.8144 1.94029 76.7547 0 79.1482 0C81.5417 0 83.482 1.94029 83.482 4.33376ZM79.1482 27.3711C81.5417 27.3711 83.482 25.4308 83.482 23.0374C83.482 20.6439 81.5417 18.7036 79.1482 18.7036C76.7547 18.7036 74.8144 20.6439 74.8144 23.0374C74.8144 25.4308 76.7547 27.3711 79.1482 27.3711ZM102.186 4.33376C102.186 6.72723 100.245 8.66753 97.8518 8.66753C95.4583 8.66753 93.518 6.72723 93.518 4.33376C93.518 1.94029 95.4583 0 97.8518 0C100.245 0 102.186 1.94029 102.186 4.33376ZM97.8518 27.3711C100.245 27.3711 102.186 25.4308 102.186 23.0374C102.186 20.6439 100.245 18.7036 97.8518 18.7036C95.4583 18.7036 93.518 20.6439 93.518 23.0374C93.518 25.4308 95.4583 27.3711 97.8518 27.3711ZM120.889 4.33376C120.889 6.72723 118.949 8.66753 116.555 8.66753C114.162 8.66753 112.222 6.72723 112.222 4.33376C112.222 1.94029 114.162 0 116.555 0C118.949 0 120.889 1.94029 120.889 4.33376ZM116.555 27.3711C118.949 27.3711 120.889 25.4308 120.889 23.0374C120.889 20.6439 118.949 18.7036 116.555 18.7036C114.162 18.7036 112.222 20.6439 112.222 23.0374C112.222 25.4308 114.162 27.3711 116.555 27.3711ZM139.593 4.33376C139.593 6.72723 137.652 8.66753 135.259 8.66753C132.866 8.66753 130.925 6.72723 130.925 4.33376C130.925 1.94029 132.866 0 135.259 0C137.652 0 139.593 1.94029 139.593 4.33376ZM135.259 27.3711C137.652 27.3711 139.593 25.4308 139.593 23.0374C139.593 20.6439 137.652 18.7036 135.259 18.7036C132.866 18.7036 130.925 20.6439 130.925 23.0374C130.925 25.4308 132.866 27.3711 135.259 27.3711ZM158.296 4.33376C158.296 6.72723 156.356 8.66753 153.963 8.66753C151.569 8.66753 149.629 6.72723 149.629 4.33376C149.629 1.94029 151.569 0 153.963 0C156.356 0 158.296 1.94029 158.296 4.33376ZM153.963 27.3711C156.356 27.3711 158.296 25.4308 158.296 23.0374C158.296 20.6439 156.356 18.7036 153.963 18.7036C151.569 18.7036 149.629 20.6439 149.629 23.0374C149.629 25.4308 151.569 27.3711 153.963 27.3711ZM177 4.33376C177 6.72723 175.06 8.66753 172.666 8.66753C170.273 8.66753 168.332 6.72723 168.332 4.33376C168.332 1.94029 170.273 0 172.666 0C175.06 0 177 1.94029 177 4.33376ZM172.666 27.3711C175.06 27.3711 177 25.4308 177 23.0374C177 20.6439 175.06 18.7036 172.666 18.7036C170.273 18.7036 168.332 20.6439 168.332 23.0374C168.332 25.4308 170.273 27.3711 172.666 27.3711ZM8.66753 41.741C8.66753 44.1344 6.72723 46.0747 4.33376 46.0747C1.94029 46.0747 0 44.1344 0 41.741C0 39.3475 1.94029 37.4072 4.33376 37.4072C6.72723 37.4072 8.66753 39.3475 8.66753 41.741ZM23.0374 46.0747C25.4308 46.0747 27.3711 44.1344 27.3711 41.741C27.3711 39.3475 25.4308 37.4072 23.0374 37.4072C20.6439 37.4072 18.7036 39.3475 18.7036 41.741C18.7036 44.1344 20.6439 46.0747 23.0374 46.0747ZM46.0747 41.741C46.0747 44.1344 44.1344 46.0747 41.741 46.0747C39.3475 46.0747 37.4072 44.1344 37.4072 41.741C37.4072 39.3475 39.3475 37.4072 41.741 37.4072C44.1344 37.4072 46.0747 39.3475 46.0747 41.741ZM60.4446 46.0747C62.8381 46.0747 64.7784 44.1344 64.7784 41.741C64.7784 39.3475 62.8381 37.4072 60.4446 37.4072C58.0511 37.4072 56.1108 39.3475 56.1108 41.741C56.1108 44.1344 58.0511 46.0747 60.4446 46.0747ZM83.482 41.741C83.482 44.1344 81.5417 46.0747 79.1482 46.0747C76.7547 46.0747 74.8144 44.1344 74.8144 41.741C74.8144 39.3475 76.7547 37.4072 79.1482 37.4072C81.5417 37.4072 83.482 39.3475 83.482 41.741ZM97.8518 46.0747C100.245 46.0747 102.186 44.1344 102.186 41.741C102.186 39.3475 100.245 37.4072 97.8518 37.4072C95.4583 37.4072 93.518 39.3475 93.518 41.741C93.518 44.1344 95.4583 46.0747 97.8518 46.0747ZM120.889 41.741C120.889 44.1344 118.949 46.0747 116.555 46.0747C114.162 46.0747 112.222 44.1344 112.222 41.741C112.222 39.3475 114.162 37.4072 116.555 37.4072C118.949 37.4072 120.889 39.3475 120.889 41.741ZM135.259 46.0747C137.652 46.0747 139.593 44.1344 139.593 41.741C139.593 39.3475 137.652 37.4072 135.259 37.4072C132.866 37.4072 130.925 39.3475 130.925 41.741C130.925 44.1344 132.866 46.0747 135.259 46.0747ZM158.296 41.741C158.296 44.1344 156.356 46.0747 153.963 46.0747C151.569 46.0747 149.629 44.1344 149.629 41.741C149.629 39.3475 151.569 37.4072 153.963 37.4072C156.356 37.4072 158.296 39.3475 158.296 41.741ZM172.666 46.0747C175.06 46.0747 177 44.1344 177 41.741C177 39.3475 175.06 37.4072 172.666 37.4072C170.273 37.4072 168.332 39.3475 168.332 41.741C168.332 44.1344 170.273 46.0747 172.666 46.0747ZM8.66753 60.4446C8.66753 62.8381 6.72723 64.7784 4.33376 64.7784C1.94029 64.7784 0 62.8381 0 60.4446C0 58.0511 1.94029 56.1108 4.33376 56.1108C6.72723 56.1108 8.66753 58.0511 8.66753 60.4446ZM23.0374 64.7784C25.4308 64.7784 27.3711 62.8381 27.3711 60.4446C27.3711 58.0511 25.4308 56.1108 23.0374 56.1108C20.6439 56.1108 18.7036 58.0511 18.7036 60.4446C18.7036 62.8381 20.6439 64.7784 23.0374 64.7784ZM46.0747 60.4446C46.0747 62.8381 44.1344 64.7784 41.741 64.7784C39.3475 64.7784 37.4072 62.8381 37.4072 60.4446C37.4072 58.0511 39.3475 56.1108 41.741 56.1108C44.1344 56.1108 46.0747 58.0511 46.0747 60.4446ZM60.4446 64.7784C62.8381 64.7784 64.7784 62.8381 64.7784 60.4446C64.7784 58.0511 62.8381 56.1108 60.4446 56.1108C58.0511 56.1108 56.1108 58.0511 56.1108 60.4446C56.1108 62.8381 58.0511 64.7784 60.4446 64.7784ZM83.482 60.4446C83.482 62.8381 81.5417 64.7784 79.1482 64.7784C76.7547 64.7784 74.8144 62.8381 74.8144 60.4446C74.8144 58.0511 76.7547 56.1108 79.1482 56.1108C81.5417 56.1108 83.482 58.0511 83.482 60.4446ZM97.8518 64.7784C100.245 64.7784 102.186 62.8381 102.186 60.4446C102.186 58.0511 100.245 56.1108 97.8518 56.1108C95.4583 56.1108 93.518 58.0511 93.518 60.4446C93.518 62.8381 95.4583 64.7784 97.8518 64.7784ZM120.889 60.4446C120.889 62.8381 118.949 64.7784 116.555 64.7784C114.162 64.7784 112.222 62.8381 112.222 60.4446C112.222 58.0511 114.162 56.1108 116.555 56.1108C118.949 56.1108 120.889 58.0511 120.889 60.4446ZM135.259 64.7784C137.652 64.7784 139.593 62.8381 139.593 60.4446C139.593 58.0511 137.652 56.1108 135.259 56.1108C132.866 56.1108 130.925 58.0511 130.925 60.4446C130.925 62.8381 132.866 64.7784 135.259 64.7784ZM158.296 60.4446C158.296 62.8381 156.356 64.7784 153.963 64.7784C151.569 64.7784 149.629 62.8381 149.629 60.4446C149.629 58.0511 151.569 56.1108 153.963 56.1108C156.356 56.1108 158.296 58.0511 158.296 60.4446ZM172.666 64.7784C175.06 64.7784 177 62.8381 177 60.4446C177 58.0511 175.06 56.1108 172.666 56.1108C170.273 56.1108 168.332 58.0511 168.332 60.4446C168.332 62.8381 170.273 64.7784 172.666 64.7784ZM8.66753 79.1482C8.66753 81.5417 6.72723 83.482 4.33376 83.482C1.94029 83.482 0 81.5417 0 79.1482C0 76.7547 1.94029 74.8144 4.33376 74.8144C6.72723 74.8144 8.66753 76.7547 8.66753 79.1482ZM23.0374 83.482C25.4308 83.482 27.3711 81.5417 27.3711 79.1482C27.3711 76.7547 25.4308 74.8144 23.0374 74.8144C20.6439 74.8144 18.7036 76.7547 18.7036 79.1482C18.7036 81.5417 20.6439 83.482 23.0374 83.482ZM46.0747 79.1482C46.0747 81.5417 44.1344 83.482 41.741 83.482C39.3475 83.482 37.4072 81.5417 37.4072 79.1482C37.4072 76.7547 39.3475 74.8144 41.741 74.8144C44.1344 74.8144 46.0747 76.7547 46.0747 79.1482ZM60.4446 83.482C62.8381 83.482 64.7784 81.5417 64.7784 79.1482C64.7784 76.7547 62.8381 74.8144 60.4446 74.8144C58.0511 74.8144 56.1108 76.7547 56.1108 79.1482C56.1108 81.5417 58.0511 83.482 60.4446 83.482ZM83.482 79.1482C83.482 81.5417 81.5417 83.482 79.1482 83.482C76.7547 83.482 74.8144 81.5417 74.8144 79.1482C74.8144 76.7547 76.7547 74.8144 79.1482 74.8144C81.5417 74.8144 83.482 76.7547 83.482 79.1482ZM97.8518 83.482C100.245 83.482 102.186 81.5417 102.186 79.1482C102.186 76.7547 100.245 74.8144 97.8518 74.8144C95.4583 74.8144 93.518 76.7547 93.518 79.1482C93.518 81.5417 95.4583 83.482 97.8518 83.482ZM120.889 79.1482C120.889 81.5417 118.949 83.482 116.555 83.482C114.162 83.482 112.222 81.5417 112.222 79.1482C112.222 76.7547 114.162 74.8144 116.555 74.8144C118.949 74.8144 120.889 76.7547 120.889 79.1482ZM135.259 83.482C137.652 83.482 139.593 81.5417 139.593 79.1482C139.593 76.7547 137.652 74.8144 135.259 74.8144C132.866 74.8144 130.925 76.7547 130.925 79.1482C130.925 81.5417 132.866 83.482 135.259 83.482ZM158.296 79.1482C158.296 81.5417 156.356 83.482 153.963 83.482C151.569 83.482 149.629 81.5417 149.629 79.1482C149.629 76.7547 151.569 74.8144 153.963 74.8144C156.356 74.8144 158.296 76.7547 158.296 79.1482ZM172.666 83.482C175.06 83.482 177 81.5417 177 79.1482C177 76.7547 175.06 74.8144 172.666 74.8144C170.273 74.8144 168.332 76.7547 168.332 79.1482C168.332 81.5417 170.273 83.482 172.666 83.482ZM8.66753 97.8518C8.66753 100.245 6.72723 102.186 4.33376 102.186C1.94029 102.186 0 100.245 0 97.8518C0 95.4583 1.94029 93.518 4.33376 93.518C6.72723 93.518 8.66753 95.4583 8.66753 97.8518ZM23.0374 102.186C25.4308 102.186 27.3711 100.245 27.3711 97.8518C27.3711 95.4583 25.4308 93.518 23.0374 93.518C20.6439 93.518 18.7036 95.4583 18.7036 97.8518C18.7036 100.245 20.6439 102.186 23.0374 102.186ZM46.0747 97.8518C46.0747 100.245 44.1344 102.186 41.741 102.186C39.3475 102.186 37.4072 100.245 37.4072 97.8518C37.4072 95.4583 39.3475 93.518 41.741 93.518C44.1344 93.518 46.0747 95.4583 46.0747 97.8518ZM60.4446 102.186C62.8381 102.186 64.7784 100.245 64.7784 97.8518C64.7784 95.4583 62.8381 93.518 60.4446 93.518C58.0511 93.518 56.1108 95.4583 56.1108 97.8518C56.1108 100.245 58.0511 102.186 60.4446 102.186ZM83.482 97.8518C83.482 100.245 81.5417 102.186 79.1482 102.186C76.7547 102.186 74.8144 100.245 74.8144 97.8518C74.8144 95.4583 76.7547 93.518 79.1482 93.518C81.5417 93.518 83.482 95.4583 83.482 97.8518ZM97.8518 102.186C100.245 102.186 102.186 100.245 102.186 97.8518C102.186 95.4583 100.245 93.518 97.8518 93.518C95.4583 93.518 93.518 95.4583 93.518 97.8518C93.518 100.245 95.4583 102.186 97.8518 102.186ZM120.889 97.8518C120.889 100.245 118.949 102.186 116.555 102.186C114.162 102.186 112.222 100.245 112.222 97.8518C112.222 95.4583 114.162 93.518 116.555 93.518C118.949 93.518 120.889 95.4583 120.889 97.8518ZM135.259 102.186C137.652 102.186 139.593 100.245 139.593 97.8518C139.593 95.4583 137.652 93.518 135.259 93.518C132.866 93.518 130.925 95.4583 130.925 97.8518C130.925 100.245 132.866 102.186 135.259 102.186ZM158.296 97.8518C158.296 100.245 156.356 102.186 153.963 102.186C151.569 102.186 149.629 100.245 149.629 97.8518C149.629 95.4583 151.569 93.518 153.963 93.518C156.356 93.518 158.296 95.4583 158.296 97.8518ZM172.666 102.186C175.06 102.186 177 100.245 177 97.8518C177 95.4583 175.06 93.518 172.666 93.518C170.273 93.518 168.332 95.4583 168.332 97.8518C168.332 100.245 170.273 102.186 172.666 102.186ZM8.66753 116.555C8.66753 118.949 6.72723 120.889 4.33376 120.889C1.94029 120.889 0 118.949 0 116.555C0 114.162 1.94029 112.222 4.33376 112.222C6.72723 112.222 8.66753 114.162 8.66753 116.555ZM23.0374 120.889C25.4308 120.889 27.3711 118.949 27.3711 116.555C27.3711 114.162 25.4308 112.222 23.0374 112.222C20.6439 112.222 18.7036 114.162 18.7036 116.555C18.7036 118.949 20.6439 120.889 23.0374 120.889ZM46.0747 116.555C46.0747 118.949 44.1344 120.889 41.741 120.889C39.3475 120.889 37.4072 118.949 37.4072 116.555C37.4072 114.162 39.3475 112.222 41.741 112.222C44.1344 112.222 46.0747 114.162 46.0747 116.555ZM60.4446 120.889C62.8381 120.889 64.7784 118.949 64.7784 116.555C64.7784 114.162 62.8381 112.222 60.4446 112.222C58.0511 112.222 56.1108 114.162 56.1108 116.555C56.1108 118.949 58.0511 120.889 60.4446 120.889ZM83.482 116.555C83.482 118.949 81.5417 120.889 79.1482 120.889C76.7547 120.889 74.8144 118.949 74.8144 116.555C74.8144 114.162 76.7547 112.222 79.1482 112.222C81.5417 112.222 83.482 114.162 83.482 116.555ZM97.8518 120.889C100.245 120.889 102.186 118.949 102.186 116.555C102.186 114.162 100.245 112.222 97.8518 112.222C95.4583 112.222 93.518 114.162 93.518 116.555C93.518 118.949 95.4583 120.889 97.8518 120.889ZM120.889 116.555C120.889 118.949 118.949 120.889 116.555 120.889C114.162 120.889 112.222 118.949 112.222 116.555C112.222 114.162 114.162 112.222 116.555 112.222C118.949 112.222 120.889 114.162 120.889 116.555ZM135.259 120.889C137.652 120.889 139.593 118.949 139.593 116.555C139.593 114.162 137.652 112.222 135.259 112.222C132.866 112.222 130.925 114.162 130.925 116.555C130.925 118.949 132.866 120.889 135.259 120.889ZM158.296 116.555C158.296 118.949 156.356 120.889 153.963 120.889C151.569 120.889 149.629 118.949 149.629 116.555C149.629 114.162 151.569 112.222 153.963 112.222C156.356 112.222 158.296 114.162 158.296 116.555ZM172.666 120.889C175.06 120.889 177 118.949 177 116.555C177 114.162 175.06 112.222 172.666 112.222C170.273 112.222 168.332 114.162 168.332 116.555C168.332 118.949 170.273 120.889 172.666 120.889ZM8.66753 135.259C8.66753 137.652 6.72723 139.593 4.33376 139.593C1.94029 139.593 0 137.652 0 135.259C0 132.866 1.94029 130.925 4.33376 130.925C6.72723 130.925 8.66753 132.866 8.66753 135.259ZM23.0374 139.593C25.4308 139.593 27.3711 137.652 27.3711 135.259C27.3711 132.866 25.4308 130.925 23.0374 130.925C20.6439 130.925 18.7036 132.866 18.7036 135.259C18.7036 137.652 20.6439 139.593 23.0374 139.593ZM46.0747 135.259C46.0747 137.652 44.1344 139.593 41.741 139.593C39.3475 139.593 37.4072 137.652 37.4072 135.259C37.4072 132.866 39.3475 130.925 41.741 130.925C44.1344 130.925 46.0747 132.866 46.0747 135.259ZM60.4446 139.593C62.8381 139.593 64.7784 137.652 64.7784 135.259C64.7784 132.866 62.8381 130.925 60.4446 130.925C58.0511 130.925 56.1108 132.866 56.1108 135.259C56.1108 137.652 58.0511 139.593 60.4446 139.593ZM83.482 135.259C83.482 137.652 81.5417 139.593 79.1482 139.593C76.7547 139.593 74.8144 137.652 74.8144 135.259C74.8144 132.866 76.7547 130.925 79.1482 130.925C81.5417 130.925 83.482 132.866 83.482 135.259ZM97.8518 139.593C100.245 139.593 102.186 137.652 102.186 135.259C102.186 132.866 100.245 130.925 97.8518 130.925C95.4583 130.925 93.518 132.866 93.518 135.259C93.518 137.652 95.4583 139.593 97.8518 139.593ZM120.889 135.259C120.889 137.652 118.949 139.593 116.555 139.593C114.162 139.593 112.222 137.652 112.222 135.259C112.222 132.866 114.162 130.925 116.555 130.925C118.949 130.925 120.889 132.866 120.889 135.259ZM135.259 139.593C137.652 139.593 139.593 137.652 139.593 135.259C139.593 132.866 137.652 130.925 135.259 130.925C132.866 130.925 130.925 132.866 130.925 135.259C130.925 137.652 132.866 139.593 135.259 139.593ZM158.296 135.259C158.296 137.652 156.356 139.593 153.963 139.593C151.569 139.593 149.629 137.652 149.629 135.259C149.629 132.866 151.569 130.925 153.963 130.925C156.356 130.925 158.296 132.866 158.296 135.259ZM172.666 139.593C175.06 139.593 177 137.652 177 135.259C177 132.866 175.06 130.925 172.666 130.925C170.273 130.925 168.332 132.866 168.332 135.259C168.332 137.652 170.273 139.593 172.666 139.593ZM8.66753 153.963C8.66753 156.356 6.72723 158.296 4.33376 158.296C1.94029 158.296 0 156.356 0 153.963C0 151.569 1.94029 149.629 4.33376 149.629C6.72723 149.629 8.66753 151.569 8.66753 153.963ZM23.0374 158.296C25.4308 158.296 27.3711 156.356 27.3711 153.963C27.3711 151.569 25.4308 149.629 23.0374 149.629C20.6439 149.629 18.7036 151.569 18.7036 153.963C18.7036 156.356 20.6439 158.296 23.0374 158.296ZM46.0747 153.963C46.0747 156.356 44.1344 158.296 41.741 158.296C39.3475 158.296 37.4072 156.356 37.4072 153.963C37.4072 151.569 39.3475 149.629 41.741 149.629C44.1344 149.629 46.0747 151.569 46.0747 153.963ZM60.4446 158.296C62.8381 158.296 64.7784 156.356 64.7784 153.963C64.7784 151.569 62.8381 149.629 60.4446 149.629C58.0511 149.629 56.1108 151.569 56.1108 153.963C56.1108 156.356 58.0511 158.296 60.4446 158.296ZM83.482 153.963C83.482 156.356 81.5417 158.296 79.1482 158.296C76.7547 158.296 74.8144 156.356 74.8144 153.963C74.8144 151.569 76.7547 149.629 79.1482 149.629C81.5417 149.629 83.482 151.569 83.482 153.963ZM97.8518 158.296C100.245 158.296 102.186 156.356 102.186 153.963C102.186 151.569 100.245 149.629 97.8518 149.629C95.4583 149.629 93.518 151.569 93.518 153.963C93.518 156.356 95.4583 158.296 97.8518 158.296ZM120.889 153.963C120.889 156.356 118.949 158.296 116.555 158.296C114.162 158.296 112.222 156.356 112.222 153.963C112.222 151.569 114.162 149.629 116.555 149.629C118.949 149.629 120.889 151.569 120.889 153.963ZM135.259 158.296C137.652 158.296 139.593 156.356 139.593 153.963C139.593 151.569 137.652 149.629 135.259 149.629C132.866 149.629 130.925 151.569 130.925 153.963C130.925 156.356 132.866 158.296 135.259 158.296ZM158.296 153.963C158.296 156.356 156.356 158.296 153.963 158.296C151.569 158.296 149.629 156.356 149.629 153.963C149.629 151.569 151.569 149.629 153.963 149.629C156.356 149.629 158.296 151.569 158.296 153.963ZM172.666 158.296C175.06 158.296 177 156.356 177 153.963C177 151.569 175.06 149.629 172.666 149.629C170.273 149.629 168.332 151.569 168.332 153.963C168.332 156.356 170.273 158.296 172.666 158.296ZM8.66753 172.666C8.66753 175.06 6.72723 177 4.33376 177C1.94029 177 0 175.06 0 172.666C0 170.273 1.94029 168.332 4.33376 168.332C6.72723 168.332 8.66753 170.273 8.66753 172.666ZM23.0374 177C25.4308 177 27.3711 175.06 27.3711 172.666C27.3711 170.273 25.4308 168.332 23.0374 168.332C20.6439 168.332 18.7036 170.273 18.7036 172.666C18.7036 175.06 20.6439 177 23.0374 177ZM46.0747 172.666C46.0747 175.06 44.1344 177 41.741 177C39.3475 177 37.4072 175.06 37.4072 172.666C37.4072 170.273 39.3475 168.332 41.741 168.332C44.1344 168.332 46.0747 170.273 46.0747 172.666ZM60.4446 177C62.8381 177 64.7784 175.06 64.7784 172.666C64.7784 170.273 62.8381 168.332 60.4446 168.332C58.0511 168.332 56.1108 170.273 56.1108 172.666C56.1108 175.06 58.0511 177 60.4446 177ZM83.482 172.666C83.482 175.06 81.5417 177 79.1482 177C76.7547 177 74.8144 175.06 74.8144 172.666C74.8144 170.273 76.7547 168.332 79.1482 168.332C81.5417 168.332 83.482 170.273 83.482 172.666ZM97.8518 177C100.245 177 102.186 175.06 102.186 172.666C102.186 170.273 100.245 168.332 97.8518 168.332C95.4583 168.332 93.518 170.273 93.518 172.666C93.518 175.06 95.4583 177 97.8518 177ZM120.889 172.666C120.889 175.06 118.949 177 116.555 177C114.162 177 112.222 175.06 112.222 172.666C112.222 170.273 114.162 168.332 116.555 168.332C118.949 168.332 120.889 170.273 120.889 172.666ZM135.259 177C137.652 177 139.593 175.06 139.593 172.666C139.593 170.273 137.652 168.332 135.259 168.332C132.866 168.332 130.925 170.273 130.925 172.666C130.925 175.06 132.866 177 135.259 177ZM158.296 172.666C158.296 175.06 156.356 177 153.963 177C151.569 177 149.629 175.06 149.629 172.666C149.629 170.273 151.569 168.332 153.963 168.332C156.356 168.332 158.296 170.273 158.296 172.666ZM172.666 177C175.06 177 177 175.06 177 172.666C177 170.273 175.06 168.332 172.666 168.332C170.273 168.332 168.332 170.273 168.332 172.666C168.332 175.06 170.273 177 172.666 177Z" fill="url(#paint0_linear)"/>
</g>
<defs>
<linearGradient id="paint0_linear" x1="13.7705" y1="0" x2="13.7705" y2="149.459" gradientUnits="userSpaceOnUse">
<stop stop-color="#F0D5DC"/>
<stop offset="1" stop-color="#DBDDFC"/>
</linearGradient>
</defs>
</svg>
