<svg width="245" height="245" viewBox="0 0 245 245" fill="none" xmlns="http://www.w3.org/2000/svg">
<path fill-rule="evenodd" clip-rule="evenodd" d="M128.241 0.0984199L0.0984199 128.241C0.0820166 127.815 0.0656133 127.396 0.04921 126.978C0.0328066 126.56 0.0164033 126.142 0 125.715L125.715 0C126.142 0.0164033 126.56 0.0328066 126.978 0.04921C127.396 0.0656133 127.815 0.0820166 128.241 0.0984199ZM0.820166 136.968L136.968 0.820166C136.18 0.721746 135.393 0.623326 134.606 0.557713L0.557713 134.606C0.623326 135.393 0.721746 136.18 0.820166 136.968ZM145.137 2.06682L2.06682 145.137C2.00122 144.776 1.93562 144.407 1.87002 144.038C1.8044 143.669 1.73877 143.299 1.67314 142.939L142.939 1.67314C143.299 1.73877 143.669 1.8044 144.038 1.87002C144.407 1.93562 144.776 2.00122 145.137 2.06682ZM3.77276 152.879L152.879 3.77276C152.534 3.69074 152.182 3.60051 151.829 3.51029C151.476 3.42008 151.124 3.32987 150.779 3.24786L3.24786 150.779C3.32987 151.124 3.42008 151.476 3.51029 151.829C3.60051 152.182 3.69074 152.534 3.77276 152.879ZM160.195 5.87239L5.87239 160.195C5.67555 159.539 5.47871 158.883 5.24906 158.226L158.226 5.24906C158.883 5.47871 159.539 5.67555 160.195 5.87239ZM8.36569 167.15L167.15 8.36569C166.527 8.10324 165.903 7.87359 165.28 7.64395L7.64395 165.28C7.87359 165.903 8.10324 166.527 8.36569 167.15ZM173.777 11.1871L11.1871 173.777C10.8919 173.186 10.6295 172.596 10.3671 172.006L10.3669 172.005L172.005 10.3669L172.006 10.3671C172.596 10.6295 173.186 10.8919 173.777 11.1871ZM14.3037 180.076L180.076 14.3037L180.075 14.3032C179.517 14.0081 178.96 13.713 178.37 13.4179L13.4179 178.37C13.713 178.96 14.0081 179.517 14.3032 180.075L14.3037 180.076ZM186.079 17.7156L17.7156 186.079C17.5317 185.752 17.3351 185.426 17.1337 185.091L17.1332 185.09L17.1326 185.089L17.1322 185.088L17.1316 185.087C17.0103 184.885 16.8872 184.681 16.7642 184.472L184.472 16.7642C184.681 16.8872 184.885 17.0103 185.087 17.1316L185.088 17.1322L185.089 17.1326L185.09 17.1332L185.091 17.1337C185.426 17.3351 185.752 17.5317 186.079 17.7156ZM21.4227 191.82L191.82 21.4227C191.702 21.344 191.582 21.2634 191.461 21.1818L191.452 21.1757L191.451 21.1748C191.069 20.9185 190.674 20.6528 190.279 20.4057L20.4057 190.279C20.6528 190.674 20.9185 191.069 21.1748 191.451L21.1757 191.452L21.1818 191.461C21.2634 191.582 21.344 191.702 21.4227 191.82ZM197.299 25.4251L25.4251 197.299C25.0316 196.807 24.6709 196.315 24.3101 195.823L24.31 195.823L24.3097 195.823L195.823 24.3097L195.823 24.31C196.315 24.6708 196.807 25.0316 197.299 25.4251ZM29.6572 202.483L202.483 29.6572C202.253 29.4604 202.015 29.2635 201.777 29.0667C201.539 28.8698 201.302 28.673 201.072 28.4762L28.4762 201.072C28.673 201.302 28.8698 201.539 29.0667 201.777C29.2635 202.015 29.4604 202.253 29.6572 202.483ZM207.404 34.1517L34.1517 207.404C33.9385 207.19 33.7334 206.969 33.5284 206.747C33.3234 206.526 33.1183 206.305 32.9051 206.091L206.091 32.9051C206.305 33.1183 206.526 33.3234 206.747 33.5284C206.969 33.7334 207.19 33.9385 207.404 34.1517ZM38.9087 212.095L212.095 38.9087C211.882 38.6954 211.677 38.4739 211.472 38.2525C211.267 38.031 211.062 37.8096 210.848 37.5964L37.5964 210.848C37.8096 211.062 38.031 211.267 38.2525 211.472C38.4739 211.677 38.6954 211.882 38.9087 212.095ZM216.524 43.9281L43.9281 216.524C43.6984 216.327 43.4606 216.13 43.2227 215.933C42.9849 215.736 42.7471 215.54 42.5174 215.343L215.343 42.5174C215.54 42.7471 215.736 42.9849 215.933 43.2227C216.13 43.4606 216.327 43.6984 216.524 43.9281ZM49.1772 220.69L220.69 49.1772C220.329 48.6851 219.969 48.193 219.575 47.7009L47.7009 219.575C48.193 219.969 48.6851 220.329 49.1772 220.69ZM224.594 54.7215L54.7215 224.594C54.3267 224.348 53.9319 224.082 53.551 223.826L53.5504 223.826L53.5499 223.826C53.4248 223.741 53.3012 223.658 53.1796 223.577L223.577 53.1796C223.658 53.3012 223.741 53.4248 223.826 53.5499L223.826 53.5504L223.826 53.551C224.082 53.9319 224.348 54.3267 224.594 54.7215ZM60.5283 228.236L228.236 60.5283C228.113 60.3187 227.989 60.1138 227.868 59.9119C227.666 59.5762 227.469 59.2484 227.284 58.9207L58.9207 227.284C59.2484 227.469 59.5762 227.666 59.9119 227.868C60.1138 227.989 60.3187 228.113 60.5283 228.236ZM231.582 66.6303L66.6303 231.582C66.0404 231.287 65.4833 230.992 64.9262 230.697L64.9243 230.696L230.696 64.9243L230.697 64.9262C230.992 65.4833 231.287 66.0404 231.582 66.6303ZM72.9948 234.633L234.633 72.9948C234.371 72.4043 234.108 71.8137 233.813 71.2232L71.2232 233.813C71.8137 234.108 72.4043 234.371 72.9948 234.633ZM237.356 79.7201L79.7201 237.356C79.0968 237.126 78.4735 236.897 77.8502 236.634L236.634 77.8502C236.897 78.4735 237.126 79.0968 237.356 79.7201ZM86.7736 239.751L239.751 86.7736C239.521 86.1177 239.325 85.4618 239.128 84.8059L239.128 84.8052L84.8052 239.128L84.8059 239.128C85.4618 239.325 86.1177 239.521 86.7736 239.751ZM241.752 94.2207L94.2207 241.752C93.8773 241.67 93.5257 241.58 93.1742 241.491L93.1735 241.49L93.1731 241.49L93.1709 241.49L93.1686 241.489C92.8167 241.399 92.4648 241.309 92.121 241.227L241.227 92.121C241.309 92.4648 241.399 92.8167 241.489 93.1686L241.49 93.1709L241.49 93.1731L241.49 93.1735L241.491 93.1742C241.58 93.5257 241.67 93.8773 241.752 94.2207ZM102.061 243.327L243.327 102.061C243.261 101.701 243.196 101.332 243.13 100.962L243.13 100.961C243.064 100.593 242.999 100.224 242.933 99.8634L99.8634 242.933C100.224 242.999 100.593 243.064 100.961 243.13L100.962 243.13C101.332 243.196 101.701 243.261 102.061 243.327ZM244.442 110.394L110.394 244.442C109.607 244.377 108.82 244.278 108.032 244.18L244.18 108.032C244.278 108.82 244.377 109.607 244.442 110.394ZM119.285 245L245 119.285L244.97 118.521L244.951 118.022C244.934 117.604 244.918 117.185 244.902 116.759L116.759 244.902C117.185 244.918 117.604 244.934 118.022 244.951C118.44 244.967 118.859 244.984 119.285 245ZM244.869 128.832L128.832 244.869C127.946 244.934 127.027 244.967 126.142 244.967L244.967 126.142C244.967 127.027 244.934 127.946 244.869 128.832ZM139.264 243.885L243.885 139.264C244.016 138.28 244.147 137.263 244.245 136.279L136.279 244.245C137.263 244.147 138.28 244.016 139.264 243.885ZM241.719 150.845L150.845 241.719L150.588 241.78L150.31 241.846L150.308 241.846L150.305 241.847C149.378 242.066 148.466 242.281 147.531 242.474L242.474 147.531C242.281 148.466 242.066 149.378 241.847 150.305L241.846 150.308L241.846 150.31L241.845 150.311L241.782 150.581L241.719 150.845ZM164.296 237.717L237.717 164.296L237.717 164.295L237.717 164.294L237.718 164.294L237.718 164.293L237.718 164.292L237.718 164.292L237.719 164.291L237.719 164.291L237.719 164.29L237.719 164.289L237.719 164.289L237.72 164.288L237.72 164.287L237.72 164.287L237.72 164.286L237.721 164.285L237.721 164.285L237.721 164.284L237.721 164.283L237.722 164.283L237.722 164.282L237.722 164.282L237.722 164.281L237.722 164.28L237.723 164.28L237.723 164.279L237.723 164.278L237.723 164.278L237.724 164.277L237.724 164.276L237.724 164.276L237.724 164.275L237.724 164.275L237.725 164.274L237.725 164.273C238.182 162.968 238.638 161.664 239.062 160.359L160.359 239.062C161.664 238.638 162.968 238.182 164.273 237.725L164.274 237.725L164.275 237.724L164.275 237.724L164.276 237.724L164.276 237.724L164.277 237.724L164.278 237.723L164.278 237.723L164.279 237.723L164.28 237.723L164.28 237.722L164.281 237.722L164.282 237.722L164.282 237.722L164.283 237.722L164.283 237.721L164.284 237.721L164.285 237.721L164.285 237.721L164.286 237.72L164.287 237.72L164.287 237.72L164.288 237.72L164.289 237.719L164.289 237.719L164.29 237.719L164.291 237.719L164.291 237.719L164.292 237.718L164.292 237.718L164.293 237.718L164.294 237.718L164.294 237.717L164.295 237.717L164.296 237.717ZM181.552 229.909L229.909 181.552C230.893 179.78 231.812 177.976 232.698 176.172L176.172 232.698C177.976 231.812 179.78 230.893 181.552 229.909ZM0.0328066 118.858L118.858 0.0328066C117.973 0.0328066 117.054 0.0656133 116.168 0.131227L0.131227 116.168C0.0656133 117.054 0.0328066 117.973 0.0328066 118.858ZM108.721 0.754553L0.754553 108.721C0.852973 107.737 0.984199 106.72 1.11543 105.736L105.736 1.11543C106.72 0.984199 107.737 0.852973 108.721 0.754553ZM2.52611 97.4685L97.4685 2.52611C96.5322 2.71888 95.619 2.93477 94.6901 3.15438L94.6891 3.15462C94.5117 3.19654 94.3338 3.2386 94.1551 3.28066L3.28066 94.1551C3.2386 94.3338 3.19654 94.5117 3.15462 94.6891L3.15438 94.6901C2.93477 95.619 2.71888 96.5322 2.52611 97.4685ZM84.6411 5.938L5.938 84.6411C6.36449 83.3289 6.82378 82.0166 7.28307 80.7043L80.7043 7.28307C82.0166 6.82378 83.3289 6.36449 84.6411 5.938ZM12.3025 68.8283L68.8283 12.3025C67.024 13.1883 65.2196 14.1069 63.448 15.0911L15.0911 63.448C14.1069 65.2196 13.1883 67.024 12.3025 68.8283Z" fill="#DBDCFB"/>
</svg>
