<svg width="216" height="216" viewBox="0 0 216 216" fill="none" xmlns="http://www.w3.org/2000/svg">
<path fill-rule="evenodd" clip-rule="evenodd" d="M108.036 0C110.679 0 113.323 0.107178 115.931 0.285809L0.285809 115.931C0.107178 113.323 0 110.679 0 108.036C0 106.714 0.0357261 105.356 0.107178 104.034L104.034 0.107178C105.356 0.0357261 106.714 0 108.036 0ZM1.10751 92.745C1.85776 87.4575 3.00099 82.2772 4.46576 77.2398L77.2398 4.46576C82.2772 3.00099 87.4575 1.85776 92.745 1.10751L1.10751 92.745ZM11.1108 60.3057C21.65 38.9772 38.9772 21.65 60.3057 11.1108L11.1108 60.3057ZM125.184 1.35759C128.578 1.89348 131.901 2.60801 135.188 3.46543L3.46543 135.188C2.60801 131.901 1.89348 128.578 1.35759 125.184L125.184 1.35759ZM143.119 5.82335C146.048 6.85941 148.942 8.00265 151.8 9.25306L9.25306 151.8C8.00265 148.942 6.85941 146.048 5.82335 143.119L143.119 5.82335ZM158.731 12.6113C161.339 14.0046 163.876 15.5051 166.341 17.1128L17.1128 166.341C15.5051 163.876 14.0046 161.339 12.6113 158.731L158.731 12.6113ZM172.414 21.2928C174.736 23.0076 176.951 24.8296 179.131 26.7231L26.7231 179.131C24.8296 176.951 23.0076 174.736 21.2928 172.414L172.414 21.2928ZM184.454 31.6891C186.455 33.7254 188.384 35.8333 190.241 37.9768L37.9768 190.241C35.8333 188.384 33.7254 186.455 31.6891 184.454L184.454 31.6891ZM194.814 43.7287C196.565 46.0509 198.173 48.4446 199.709 50.9097L50.9097 199.709C48.4446 198.173 46.0509 196.565 43.7287 194.814L194.814 43.7287ZM203.496 57.4476C204.925 60.127 206.211 62.8422 207.426 65.6288L65.6288 207.426C62.8422 206.211 60.127 204.925 57.4476 203.496L203.496 57.4476ZM210.248 73.0956C211.32 76.1323 212.213 79.2762 212.999 82.4558L82.4558 212.999C79.2762 212.213 76.1323 211.32 73.0956 210.248L210.248 73.0956ZM214.714 91.0301C215.285 94.6027 215.678 98.2468 215.893 101.962L101.962 215.893C98.2468 215.678 94.6027 215.285 91.0301 214.714L214.714 91.0301ZM216 112.18C215.821 116.717 215.357 121.219 214.642 125.613L125.613 214.642C121.219 215.357 116.717 215.821 112.18 216L216 112.18ZM211.57 139.01C209.391 146.263 206.461 153.229 202.889 159.767L159.767 202.889C153.229 206.461 146.263 209.391 139.01 211.57L211.57 139.01Z" fill="url(#paint0_linear)"/>
<defs>
<linearGradient id="paint0_linear" x1="16.8047" y1="0" x2="16.8047" y2="182.391" gradientUnits="userSpaceOnUse">
<stop stop-color="#F0D5DC"/>
<stop offset="1" stop-color="#DBDDFC"/>
</linearGradient>
</defs>
</svg>
