<svg width="217" height="217" viewBox="0 0 217 217" fill="none" xmlns="http://www.w3.org/2000/svg">
<path fill-rule="evenodd" clip-rule="evenodd" d="M108.536 0C111.192 0 113.848 0.107675 116.468 0.287132L0.287132 116.468C0.107675 113.848 0 111.192 0 108.536C0 107.208 0.0358915 105.844 0.107674 104.516L104.516 0.107674C105.844 0.0358915 107.208 0 108.536 0ZM1.11264 93.1743C1.86636 87.8624 3.01489 82.6581 4.48644 77.5974L77.5974 4.48644C82.6581 3.01489 87.8624 1.86636 93.1743 1.11264L1.11264 93.1743ZM11.1623 60.5848C21.7502 39.1576 39.1576 21.7502 60.5848 11.1623L11.1623 60.5848ZM125.764 1.36388C129.174 1.90225 132.511 2.62008 135.813 3.48148L3.48148 135.813C2.62008 132.511 1.90225 129.174 1.36388 125.764L125.764 1.36388ZM143.781 5.85031C146.724 6.89117 149.632 8.0397 152.503 9.2959L9.2959 152.503C8.0397 149.632 6.89117 146.724 5.85031 143.781L143.781 5.85031ZM159.466 12.6697C162.086 14.0695 164.634 15.5769 167.111 17.192L17.192 167.111C15.5769 164.634 14.0695 162.086 12.6697 159.466L159.466 12.6697ZM173.212 21.3913C175.545 23.1141 177.771 24.9446 179.96 26.8468L26.8468 179.96C24.9446 177.771 23.1141 175.545 21.3913 173.212L173.212 21.3913ZM185.308 31.8358C187.318 33.8816 189.256 35.9992 191.122 38.1527L38.1527 191.122C35.9992 189.256 33.8816 187.318 31.8358 185.308L185.308 31.8358ZM195.716 43.9312C197.475 46.2641 199.09 48.6689 200.633 51.1454L51.1454 200.633C48.6689 199.09 46.2641 197.475 43.9312 195.716L195.716 43.9312ZM204.438 57.7135C205.874 60.4054 207.166 63.1331 208.386 65.9327L65.9327 208.386C63.1331 207.166 60.4054 205.874 57.7135 204.438L204.438 57.7135ZM211.221 73.434C212.298 76.4848 213.195 79.6432 213.985 82.8376L82.8376 213.985C79.6432 213.195 76.4848 212.298 73.434 211.221L211.221 73.434ZM215.708 91.4515C216.282 95.0407 216.677 98.7016 216.892 102.434L102.434 216.892C98.7016 216.677 95.0407 216.282 91.4515 215.708L215.708 91.4515ZM217 112.699C216.821 117.258 216.354 121.78 215.636 126.195L126.195 215.636C121.78 216.354 117.258 216.821 112.699 217L217 112.699ZM212.549 139.654C210.36 146.94 207.417 153.939 203.828 160.507L160.507 203.828C153.939 207.417 146.94 210.36 139.654 212.549L212.549 139.654Z" fill="#F3EAE4"/>
</svg>
