<svg width="370" height="256" viewBox="0 0 370 256" fill="none" xmlns="http://www.w3.org/2000/svg">
<path fill-rule="evenodd" clip-rule="evenodd" d="M0 54.5303C0 26.4847 25.8865 5.59708 53.2986 11.524L330.089 71.3706C352.597 76.2372 367.545 97.6353 364.37 120.443L350.932 216.977C347.84 239.19 328.535 255.523 306.116 254.893L42.7633 247.488C18.9538 246.819 0 227.324 0 203.505V54.5303Z" fill="url(#paint0_linear)"/>
<mask id="mask0" mask-type="alpha" maskUnits="userSpaceOnUse" x="0" y="10" width="365" height="245">
<path fill-rule="evenodd" clip-rule="evenodd" d="M0 54.5303C0 26.4847 25.8865 5.59708 53.2986 11.524L330.089 71.3706C352.597 76.2372 367.545 97.6353 364.37 120.443L350.932 216.977C347.84 239.19 328.535 255.523 306.116 254.893L42.7633 247.488C18.9538 246.819 0 227.324 0 203.505V54.5303Z" fill="white"/>
</mask>
<g mask="url(#mask0)">
<path fill-rule="evenodd" clip-rule="evenodd" d="M92.0998 -61C94.7451 -61 97.3904 -60.8928 100 -60.714L-15.714 55C-15.8928 52.3904 -16 49.7451 -16 47.0998C-16 45.7772 -15.9643 44.4188 -15.8928 43.0961L88.0961 -60.8928C89.4188 -60.9643 90.7772 -61 92.0998 -61ZM-15 32C-14.2468 26.6916 -13.099 21.4908 -11.6285 16.4335L61.4335 -56.6285C66.4908 -58.099 71.6916 -59.2468 77 -60L-15 32ZM-5 -1C5.49746 -22.244 22.756 -39.5025 44 -50L-5 -1ZM109.984 -59C113.382 -58.4634 116.709 -57.748 120 -56.8895L-11.8895 75C-12.748 71.709 -13.4634 68.3823 -14 64.984L109.984 -59ZM128.258 -55C131.208 -53.9567 134.122 -52.8054 137 -51.5463L-6.54626 92C-7.80543 89.1219 -8.95668 86.2078 -10 83.2577L128.258 -55ZM143.377 -48C145.99 -46.6042 148.531 -45.1011 151 -43.4906L1.50941 106C-0.101092 103.531 -1.60423 100.99 -3 98.377L143.377 -48ZM157.234 -40C159.573 -38.2725 161.805 -36.4371 164 -34.5297L10.4703 119C8.56292 116.805 6.72748 114.573 5 112.234L157.234 -40ZM169.196 -29C171.202 -26.9579 173.137 -24.8441 175 -22.6945L22.3055 130C20.1559 128.137 18.0421 126.202 16 124.196L169.196 -29ZM180.074 -17C181.836 -14.6626 183.454 -12.2533 185 -9.7721L35.2279 140C32.7467 138.454 30.3374 136.836 28 135.074L180.074 -17ZM189.043 -3C190.482 -0.302287 191.777 2.4314 193 5.23702L50.237 148C47.4314 146.777 44.6977 145.482 42 144.043L189.043 -3ZM195.228 12C196.308 15.0605 197.208 18.2291 198 21.4336L66.4336 153C63.2291 152.208 60.0605 151.308 57 150.228L195.228 12ZM199.82 31C200.392 34.5765 200.785 38.2246 201 41.9442L86.9442 156C83.2246 155.785 79.5765 155.392 76 154.82L199.82 31ZM201 52C200.821 56.5451 200.356 61.0544 199.64 65.4563L110.456 154.64C106.054 155.356 101.545 155.821 97 156L201 52ZM197 79C194.807 86.2964 191.86 93.3053 188.266 99.8828L144.883 143.266C138.305 146.86 131.296 149.807 124 152L197 79Z" fill="#FCF1DC"/>
</g>
<defs>
<linearGradient id="paint0_linear" x1="0" y1="0" x2="0" y2="256" gradientUnits="userSpaceOnUse">
<stop stop-color="#FEF7EA"/>
<stop offset="1" stop-color="#FCECD1"/>
</linearGradient>
</defs>
</svg>
