<svg width="40" height="40" viewBox="0 0 40 40" fill="none" xmlns="http://www.w3.org/2000/svg">
<path fill-rule="evenodd" clip-rule="evenodd" d="M37.6381 27.7333H9.90476C8.81071 27.7333 7.92381 26.8464 7.92381 25.7524C7.92381 24.6583 8.81071 23.7714 9.90476 23.7714H30.5859C33.3112 23.7716 35.6873 21.918 36.3505 19.2747L39.619 6.41829C39.7694 5.82581 39.6378 5.19711 39.2625 4.71467C38.8718 4.21942 38.2685 3.93988 37.6381 3.9619H9.42933C8.59189 1.59322 6.3554 0.00706084 3.84305 0H1.98095C0.886903 0 0 0.886903 0 1.98095C0 3.075 0.886903 3.9619 1.98095 3.9619H3.84305C4.77548 3.93474 5.60052 4.56177 5.824 5.46743L5.94286 6.41829V6.41829L9.3699 19.8095C6.08776 19.9572 3.54678 22.7377 3.69448 26.0198C3.84217 29.302 6.62261 31.8429 9.90476 31.6952H10.2613C9.36597 34.1621 10.1947 36.9242 12.3002 38.4908C14.4057 40.0573 17.2895 40.0573 19.395 38.4908C21.5005 36.9242 22.3293 34.1621 21.4339 31.6952H26.109C25.2136 34.1621 26.0423 36.9242 28.1478 38.4908C30.2534 40.0573 33.1371 40.0573 35.2426 38.4908C37.3482 36.9242 38.1769 34.1621 37.2815 31.6952H37.6381C38.7321 31.6952 39.619 30.8083 39.619 29.7143C39.619 28.6202 38.7321 27.7333 37.6381 27.7333V27.7333ZM35.1025 7.92381L32.5074 18.304C32.2839 19.2097 31.4589 19.8367 30.5265 19.8095H13.4309L10.4594 7.92381H35.1025ZM15.8476 35.6571C14.7536 35.6571 13.8667 34.7702 13.8667 33.6762C13.8667 32.5821 14.7536 31.6952 15.8476 31.6952C16.9417 31.6952 17.8286 32.5821 17.8286 33.6762C17.8286 34.7702 16.9417 35.6571 15.8476 35.6571ZM31.6952 35.6571C30.6012 35.6571 29.7143 34.7702 29.7143 33.6762C29.7143 32.5821 30.6012 31.6952 31.6952 31.6952C32.7893 31.6952 33.6762 32.5821 33.6762 33.6762C33.6762 34.7702 32.7893 35.6571 31.6952 35.6571Z" fill="#CDADC6"/>
</svg>
