<svg width="50" height="50" viewBox="0 0 50 50" fill="none" xmlns="http://www.w3.org/2000/svg">
<path fill-rule="evenodd" clip-rule="evenodd" d="M12.381 34.6667H47.0476C48.4152 34.6667 49.5238 35.7753 49.5238 37.1429C49.5238 38.5104 48.4152 39.619 47.0476 39.619H46.6019C47.7211 42.7027 46.6852 46.1553 44.0533 48.1134C41.4214 50.0716 37.8167 50.0716 35.1848 48.1134C32.5529 46.1553 31.517 42.7027 32.6362 39.619H26.7924C27.9116 42.7027 26.8757 46.1553 24.2438 48.1134C21.6119 50.0716 18.0072 50.0716 15.3753 48.1134C12.7434 46.1553 11.7075 42.7027 12.8267 39.619H12.381C8.27827 39.8037 4.80272 36.6274 4.6181 32.5248C4.43347 28.4221 7.60969 24.9465 11.7124 24.7619L7.42857 8.02286L7.28 6.83429C7.00065 5.70221 5.96935 4.91842 4.80381 4.95238H2.47619C1.10863 4.95238 0 3.84375 0 2.47619C0 1.10863 1.10863 0 2.47619 0H4.80381C7.94425 0.00882605 10.7399 1.99153 11.7867 4.95238H47.0476C47.8357 4.92485 48.5897 5.27428 49.0781 5.89333C49.5473 6.49639 49.7117 7.28227 49.5238 8.02286L45.4381 24.0933C44.6092 27.3976 41.639 29.7145 38.2324 29.7143H12.381C11.0134 29.7143 9.90476 30.8229 9.90476 32.1905C9.90476 33.558 11.0134 34.6667 12.381 34.6667ZM40.6343 22.88L43.8781 9.90476H13.0743L16.7886 24.7619H38.1581C39.3236 24.7959 40.3549 24.0121 40.6343 22.88ZM19.8095 44.5714C18.442 44.5714 17.3333 43.4628 17.3333 42.0952C17.3333 40.7277 18.442 39.619 19.8095 39.619C21.1771 39.619 22.2857 40.7277 22.2857 42.0952C22.2857 43.4628 21.1771 44.5714 19.8095 44.5714ZM37.1429 42.0952C37.1429 43.4628 38.2515 44.5714 39.619 44.5714C40.9866 44.5714 42.0952 43.4628 42.0952 42.0952C42.0952 40.7277 40.9866 39.619 39.619 39.619C38.2515 39.619 37.1429 40.7277 37.1429 42.0952Z" fill="#676DBC"/>
</svg>
