<svg width="40" height="40" viewBox="0 0 40 40" fill="none" xmlns="http://www.w3.org/2000/svg">
<path fill-rule="evenodd" clip-rule="evenodd" d="M24.72 24.46C21.9653 26.681 18.0347 26.681 15.28 24.46C14.4295 23.7531 13.1669 23.8695 12.46 24.72C11.7531 25.5705 11.8695 26.8331 12.72 27.54C16.9354 31.059 23.0646 31.059 27.28 27.54C27.8302 27.0827 28.0946 26.3666 27.9737 25.6615C27.8527 24.9564 27.3648 24.3693 26.6937 24.1215C26.0226 23.8737 25.2702 24.0027 24.72 24.46V24.46ZM14 18C15.1046 18 16 17.1046 16 16C16 14.8954 15.1046 14 14 14C12.8954 14 12 14.8954 12 16C12 17.1046 12.8954 18 14 18ZM26 14C24.8954 14 24 14.8954 24 16C24 17.1046 24.8954 18 26 18C27.1046 18 28 17.1046 28 16C28 14.8954 27.1046 14 26 14ZM20 0C8.9543 0 0 8.9543 0 20C0 31.0457 8.9543 40 20 40C31.0457 40 40 31.0457 40 20C40 14.6957 37.8929 9.60859 34.1421 5.85786C30.3914 2.10714 25.3043 0 20 0ZM20 36C11.1634 36 4 28.8366 4 20C4 11.1634 11.1634 4 20 4C28.8366 4 36 11.1634 36 20C36 24.2435 34.3143 28.3131 31.3137 31.3137C28.3131 34.3143 24.2435 36 20 36Z" fill="#FFF2DB"/>
</svg>
