<svg width="58" height="52" viewBox="0 0 58 52" fill="none" xmlns="http://www.w3.org/2000/svg">
<path d="M31.7778 0C20.6094 1.66422e-07 11.5556 9.0538 11.5556 20.2222C11.5556 31.3906 20.6094 40.4444 31.7778 40.4444C39.7552 40.4444 46.2222 33.9774 46.2222 26C46.2222 18.0226 39.7552 11.5556 31.7778 11.5556C26.9913 11.5556 23.1111 15.4358 23.1111 20.2222C23.1111 25.0087 26.9913 28.8889 31.7778 28.8889C33.3733 28.8889 34.6667 27.5955 34.6667 26C34.6667 24.4045 33.3733 23.1111 31.7778 23.1111C30.1823 23.1111 28.8889 21.8177 28.8889 20.2222C28.8889 18.6267 30.1823 17.3333 31.7778 17.3333C36.5642 17.3333 40.4444 21.2135 40.4444 26C40.4444 30.7865 36.5642 34.6667 31.7778 34.6667C23.8003 34.6667 17.3333 28.1997 17.3333 20.2222C17.3333 12.2448 23.8003 5.77778 31.7778 5.77778C42.9462 5.77778 52 14.8316 52 26C52 37.1684 42.9462 46.2222 31.7778 46.2222C17.4184 46.2222 5.77778 34.5816 5.77778 20.2222C5.77778 18.6267 4.48438 17.3333 2.88889 17.3333C1.2934 17.3333 0 18.6267 0 20.2222C0 28.6502 3.34801 36.733 9.3075 42.6925C15.267 48.652 23.3498 52 31.7778 52C46.1372 52 57.7778 40.3594 57.7778 26C57.7778 11.6406 46.1372 2.13972e-07 31.7778 0Z" fill="#D9A955"/>
</svg>
