<svg width="212" height="191" viewBox="0 0 212 191" fill="none" xmlns="http://www.w3.org/2000/svg">
<path fill-rule="evenodd" clip-rule="evenodd" d="M116.6 0C75.6205 6.11283e-07 42.4 33.2553 42.4 74.2778C42.4 115.3 75.6205 148.556 116.6 148.556C145.871 148.556 169.6 124.802 169.6 95.5C169.6 66.1982 145.871 42.4444 116.6 42.4444C99.0373 42.4444 84.8 56.6967 84.8 74.2778C84.8 91.8588 99.0373 106.111 116.6 106.111C122.454 106.111 127.2 101.36 127.2 95.5C127.2 89.6396 122.454 84.8889 116.6 84.8889C110.746 84.8889 106 80.1381 106 74.2778C106 68.4174 110.746 63.6667 116.6 63.6667C134.163 63.6667 148.4 77.9189 148.4 95.5C148.4 113.081 134.163 127.333 116.6 127.333C87.3289 127.333 63.6 103.58 63.6 74.2778C63.6 44.976 87.3289 21.2222 116.6 21.2222C157.58 21.2222 190.8 54.4775 190.8 95.5C190.8 136.522 157.58 169.778 116.6 169.778C63.912 169.778 21.2 127.021 21.2 74.2778C21.2 68.4174 16.4542 63.6667 10.6 63.6667C4.74578 63.6667 0 68.4174 0 74.2778C0 105.234 12.2846 134.923 34.1513 156.813C56.0181 178.703 85.6758 191 116.6 191C169.288 191 212 148.243 212 95.5C212 42.7568 169.288 7.85935e-07 116.6 0Z" fill="url(#paint0_linear)"/>
<defs>
<linearGradient id="paint0_linear" x1="16.4935" y1="0" x2="16.4935" y2="161.281" gradientUnits="userSpaceOnUse">
<stop stop-color="#F0D5DC"/>
<stop offset="1" stop-color="#DBDDFC"/>
</linearGradient>
</defs>
</svg>
