<svg width="15" height="13" viewBox="0 0 15 13" fill="none" xmlns="http://www.w3.org/2000/svg">
<path fill-rule="evenodd" clip-rule="evenodd" d="M14.3546 0.993215C14.4597 0.490621 13.9652 0.072027 13.4867 0.258683L0.922698 5.15403C0.516245 5.31321 0.540479 5.89662 0.95987 6.02028L4.15262 6.96331L5.34371 10.7443C5.46817 11.1387 5.96837 11.2591 6.25848 10.9633L7.90937 9.27767L11.1482 11.655C11.5441 11.9459 12.1089 11.7294 12.2092 11.2486L14.3546 0.993215ZM11.7308 2.291C11.8892 2.19242 12.0516 2.41057 11.9118 2.53423L6.07581 7.69465C6.01759 7.74636 5.98042 7.81746 5.97235 7.89504L5.76226 11.0401C5.75415 11.1055 5.66368 11.1144 5.64507 11.0514L4.70528 6.9245C4.66248 6.78795 4.71821 6.64006 4.83943 6.56492L11.7308 2.291Z" fill="white"/>
<path d="M11.7308 2.29097C11.8892 2.19239 12.0516 2.41055 11.9118 2.53421L6.07589 7.69463C6.01772 7.74633 5.98055 7.81744 5.97244 7.89502L5.76234 11.04C5.75428 11.1055 5.66377 11.1144 5.64516 11.0513L4.70536 6.92447C4.66252 6.78792 4.7183 6.64003 4.83952 6.56489L11.7308 2.29097Z" fill="#9EC2E5"/>
<path d="M5.67909 11.0942C5.52717 11.04 5.39868 10.9188 5.34374 10.7442L4.15265 6.96321L0.9599 6.02018C0.54051 5.89653 0.516275 5.31312 0.922728 5.15393L13.4867 0.258636C13.7954 0.138214 14.1114 0.269933 14.2673 0.514011C14.2382 0.469573 14.2035 0.42837 14.1647 0.391995L5.64107 7.35035V7.655L5.5942 7.62106L5.64107 9.53946V11.078C5.65321 11.0837 5.6661 11.0885 5.67904 11.0926V11.0942H5.67909Z" fill="white"/>
<path d="M14.3684 0.821184C14.3708 0.876121 14.3668 0.934293 14.3546 0.993309L12.2092 11.2487C12.1089 11.7295 11.5441 11.946 11.1481 11.6551L7.90936 9.27776L5.64108 7.65514V7.3505L14.1647 0.39209C14.2035 0.428465 14.2383 0.469668 14.2673 0.514105C14.273 0.523809 14.2786 0.532668 14.2843 0.541574C14.2891 0.551277 14.2948 0.56098 14.2997 0.56984C14.3045 0.579543 14.3094 0.589246 14.3134 0.598949C14.3183 0.609449 14.3223 0.619152 14.3264 0.629652C14.3296 0.638559 14.3336 0.648215 14.3369 0.658762C14.3474 0.690262 14.3554 0.722605 14.3611 0.756543C14.3643 0.777543 14.3668 0.79859 14.3684 0.821184Z" fill="#D1D1D1"/>
<path d="M7.90935 9.27785L6.25846 10.9635C6.24472 10.9773 6.23019 10.991 6.21561 11.0031C6.20108 11.0153 6.1865 11.0258 6.17118 11.0363C6.17038 11.0371 6.17038 11.0371 6.17038 11.0371C6.13968 11.0573 6.10818 11.0742 6.07504 11.088C6.05807 11.0944 6.04189 11.1009 6.02493 11.1049C5.95461 11.1259 5.88271 11.1316 5.8116 11.1244C5.79304 11.1228 5.77443 11.1195 5.75666 11.1163C5.75422 11.1163 5.75183 11.1155 5.74939 11.1147C5.73163 11.1099 5.71382 11.105 5.69605 11.0993C5.69038 11.0977 5.68475 11.0961 5.67908 11.0929L5.64111 9.53974V7.65527L7.90935 9.27785Z" fill="#D1D1D1"/>
<path d="M6.31608 11.0173C6.26958 11.0561 6.22293 11.0923 6.17388 11.1259V11.1233C6.22308 11.0897 6.26958 11.0561 6.31608 11.0173Z" fill="#DADDE0"/>
<path d="M6.22361 11.0869V11.0895C6.22361 11.0895 6.22361 11.0869 6.22106 11.0895C6.22106 11.0895 6.22106 11.0895 6.22361 11.0869Z" fill="#DADDE0"/>
<path d="M6.07504 11.1869C6.12718 11.1464 6.17674 11.0964 6.22504 11.0369C6.17674 11.0963 6.12585 11.1463 6.07504 11.1869Z" fill="#DADDE0"/>
<path d="M5.81161 11.1926C5.88272 11.2159 5.95463 11.1977 6.02494 11.1305C5.97404 11.1823 5.92149 11.2055 5.86899 11.2055C5.85282 11.2055 5.83665 11.203 5.82132 11.1977C5.81808 11.1979 5.81485 11.1979 5.81161 11.1926Z" fill="#DADDE0"/>
<path d="M5.97132 11.1824C5.92043 11.1824 5.86955 11.1799 5.82132 11.1746C5.86955 11.1799 5.92043 11.1824 5.97132 11.1824Z" fill="white"/>
<path d="M5.89283 11.1794C5.90284 11.1845 5.91285 11.1845 5.92286 11.1845C5.87034 11.1819 5.82276 11.1741 5.77286 11.1638C5.81275 11.1717 5.85279 11.1768 5.89283 11.1794Z" fill="white"/>
<path d="M5.90668 11.1846C5.87136 11.182 5.83603 11.1768 5.80084 11.1691C5.78535 11.1666 5.76999 11.164 5.75668 11.1588C5.80519 11.1691 5.85587 11.1795 5.90668 11.1846Z" fill="#DADDE0"/>
<path d="M5.69608 11.1339C5.74603 11.152 5.79612 11.1675 5.84608 11.1831C5.82564 11.178 5.80521 11.1727 5.78478 11.1676C5.77569 11.1651 5.76659 11.1625 5.75974 11.1573C5.73918 11.152 5.71651 11.1442 5.69608 11.1339Z" fill="#DADDE0"/>
<path d="M5.75515 11.1559C5.7784 11.161 5.80165 11.1662 5.8249 11.1713C5.80165 11.1688 5.7784 11.1637 5.75515 11.1559Z" fill="white"/>
<path d="M5.73781 11.1472C5.76106 11.1576 5.78701 11.1654 5.81026 11.1705C5.77141 11.1627 5.73271 11.1498 5.69386 11.1343C5.70931 11.1394 5.72221 11.1447 5.73781 11.1472Z" fill="white"/>
<path d="M5.7663 11.1578C5.75085 11.1552 5.7378 11.15 5.72235 11.1449C5.7198 11.1474 5.71455 11.1449 5.712 11.1423V11.1372C5.73 11.1474 5.74815 11.1525 5.7663 11.1578Z" fill="#DADDE0"/>
<path d="M5.65088 9.53955L5.77238 11.0927C5.73098 11.0886 5.68958 11.0838 5.65088 11.0781V9.53955Z" fill="#D1D1D1"/>
<path d="M5.74421 7.65503V9.5395L5.59421 7.62109L5.74421 7.65503Z" fill="#DADDE0"/>
<path d="M11.9118 2.53418L6.07583 7.6946C6.01766 7.7463 5.98049 7.81741 5.97238 7.89499L5.76266 11.0403C5.75459 11.1057 5.66408 11.1146 5.64467 11.0516L4.7053 6.92449C4.66245 6.78794 4.71824 6.64005 4.83945 6.56491L11.7308 2.29099C11.8892 2.19236 12.0516 2.41057 11.9118 2.53418Z" fill="#ADBCC9"/>
</svg>
