<svg width="36" height="36" viewBox="0 0 36 36" fill="none" xmlns="http://www.w3.org/2000/svg">
<circle cx="18" cy="18" r="18" fill="#4CD964"/>
<path d="M27.7101 23.5278C27.6571 23.368 27.3197 23.1326 26.6981 22.8221C26.5297 22.7243 26.2897 22.5913 25.9793 22.4226C25.6685 22.2539 25.3865 22.0984 25.1336 21.9564C24.8802 21.8144 24.6428 21.6768 24.4211 21.5438C24.3856 21.5171 24.2746 21.4396 24.0882 21.3106C23.9016 21.1819 23.7442 21.0865 23.6152 21.0242C23.4865 20.9623 23.3599 20.9311 23.2356 20.9311C23.0581 20.9311 22.8363 21.0577 22.5701 21.3106C22.3038 21.5637 22.0596 21.8387 21.8378 22.1364C21.6159 22.4339 21.3806 22.7089 21.1322 22.962C20.8835 23.2151 20.6792 23.3415 20.5195 23.3415C20.4394 23.3415 20.3395 23.3192 20.2198 23.2751C20.1001 23.2308 20.009 23.1928 19.9465 23.1621C19.8846 23.1308 19.7783 23.0689 19.6272 22.9754C19.4759 22.8821 19.3918 22.8311 19.374 22.8221C18.1578 22.1473 17.1147 21.3749 16.2445 20.5052C15.3746 19.6349 14.6021 18.592 13.9274 17.3756C13.9185 17.3579 13.8673 17.2735 13.7742 17.1226C13.6809 16.9717 13.6187 16.8653 13.5877 16.803C13.5566 16.7409 13.5189 16.6498 13.4745 16.53C13.4302 16.4102 13.408 16.3104 13.408 16.2304C13.408 16.0707 13.5345 15.8664 13.7876 15.6178C14.0406 15.3693 14.3159 15.134 14.6132 14.9122C14.9107 14.6904 15.1858 14.4462 15.4388 14.18C15.6918 13.9136 15.8183 13.6918 15.8183 13.5142C15.8183 13.39 15.7873 13.2634 15.7252 13.1347C15.6631 13.0057 15.5676 12.8484 15.4388 12.6619C15.31 12.4754 15.2324 12.3646 15.2057 12.3289C15.0726 12.1071 14.9352 11.8696 14.793 11.6166C14.6507 11.3636 14.4955 11.0816 14.3267 10.7709C14.1581 10.4604 14.025 10.2206 13.9273 10.052C13.6167 9.43064 13.3815 9.09314 13.2216 9.04007C13.1595 9.01343 13.0662 9 12.942 9C12.7022 9 12.3893 9.04431 12.0031 9.13321C11.6168 9.22197 11.3128 9.31507 11.0908 9.41287C10.6469 9.59921 10.1764 10.1407 9.67915 11.0372C9.22637 11.8716 9 12.6974 9 13.514C9 13.7535 9.01553 13.9865 9.0466 14.2131C9.07766 14.4395 9.13317 14.6947 9.21317 14.9789C9.29302 15.2629 9.35744 15.4739 9.40614 15.6114C9.45488 15.7489 9.54588 15.9952 9.6791 16.3504C9.81213 16.7055 9.89213 16.9229 9.91876 17.0028C10.2295 17.8729 10.5979 18.6496 11.024 19.3332C11.7251 20.4695 12.6818 21.6438 13.8936 22.8557C15.1055 24.0674 16.2797 25.0241 17.4161 25.7254C18.0997 26.1514 18.8768 26.5198 19.7467 26.8307C19.8267 26.8572 20.0441 26.937 20.3991 27.0705C20.7543 27.2036 21.0007 27.2946 21.1382 27.3434C21.2757 27.3923 21.4868 27.4568 21.7706 27.5368C22.0551 27.6167 22.3101 27.6722 22.5365 27.7035C22.763 27.7342 22.9961 27.75 23.2357 27.75C24.0523 27.75 24.8782 27.5235 25.7127 27.0708C26.6092 26.5738 27.1506 26.1032 27.337 25.659C27.4351 25.4373 27.528 25.1332 27.6167 24.7469C27.7058 24.3608 27.75 24.048 27.75 23.8082C27.7503 23.6835 27.7369 23.5905 27.7101 23.5278Z" fill="white"/>
</svg>
