<svg width="15" height="15" viewBox="0 0 15 15" fill="none" xmlns="http://www.w3.org/2000/svg">
<path d="M14.7319 12.2253C14.4263 13.0976 13.2136 13.8211 12.2462 14.0323C11.5844 14.1748 10.72 14.2884 7.81004 13.0688C4.08788 11.5098 1.69088 7.68601 1.50406 7.43792C1.32516 7.18983 0 5.41318 0 3.57571C0 1.73824 0.923019 0.843509 1.29508 0.459368C1.60064 0.144053 2.10569 0 2.59015 0C2.74689 0 2.8878 0.00800293 3.01446 0.0144053C3.38651 0.0304111 3.57333 0.0528193 3.81873 0.646637C4.1243 1.39091 4.86841 3.22838 4.95707 3.41725C5.04731 3.60612 5.13756 3.86221 5.0109 4.1103C4.89216 4.3664 4.78767 4.48004 4.60085 4.69772C4.41403 4.9154 4.2367 5.08186 4.04988 5.31554C3.8789 5.51882 3.68574 5.7365 3.90106 6.11264C4.11638 6.48077 4.86049 7.70842 5.95608 8.69438C7.3699 9.96685 8.51615 10.3734 8.92621 10.5463C9.23177 10.6743 9.59591 10.6439 9.81915 10.4038C10.1025 10.0949 10.4524 9.58271 10.8087 9.07852C11.062 8.71679 11.3818 8.67197 11.7174 8.80002C12.0594 8.92006 13.869 9.82439 14.2411 10.0117C14.6131 10.2005 14.8585 10.2902 14.9488 10.4486C15.0374 10.6071 15.0374 11.3514 14.7319 12.2253Z" fill="#FAFAFA"/>
</svg>
