<svg width="132" height="156" viewBox="0 0 132 156" fill="none" xmlns="http://www.w3.org/2000/svg">
<path fill-rule="evenodd" clip-rule="evenodd" d="M66.107 156C78.8007 156 90.1394 152.929 100.123 146.786C110.107 140.643 117.916 131.679 123.549 119.893C129.183 108.107 132 94.1429 132 78C132 61.8571 129.183 47.8929 123.549 36.1071C117.916 24.3214 110.107 15.3571 100.123 9.21429C90.1394 3.07143 78.8007 0 66.107 0C53.2707 0 41.8606 3.07143 31.8768 9.21429C21.893 15.3571 14.0843 24.3214 8.45057 36.1071C2.81686 47.8929 0 61.8571 0 78C0 94.1429 2.81686 108.107 8.45057 119.893C14.0843 131.679 21.893 140.643 31.8768 146.786C41.8606 152.929 53.2707 156 66.107 156ZM66.6216 121.907C59.417 121.907 53.731 118.435 49.5636 111.489C45.3962 104.544 43.3125 93.5529 43.3125 78.5166C43.3125 63.4802 45.3962 52.4893 49.5636 45.5439C53.731 38.5985 59.417 35.1258 66.6216 35.1258C73.6849 35.1258 79.3003 38.5985 83.4677 45.5439C87.6351 52.4893 89.7188 63.4802 89.7188 78.5166C89.7188 93.5529 87.6351 104.544 83.4677 111.489C79.3003 118.435 73.6849 121.907 66.6216 121.907Z" fill="url(#paint0_linear)"/>
<defs>
<linearGradient id="paint0_linear" x1="10.2696" y1="0" x2="10.2696" y2="131.726" gradientUnits="userSpaceOnUse">
<stop stop-color="#F0D5DC"/>
<stop offset="1" stop-color="#DBDDFC"/>
</linearGradient>
</defs>
</svg>
